/* XPM */
static char *_616354632308[] = {
/* columns rows colors chars-per-pixel */
"64 64 250 2 ",
"   c #010203",
".  c #0A0504",
"X  c #0D0A05",
"o  c #04050A",
"O  c #0A060B",
"+  c #06090D",
"@  c #0A0A0C",
"#  c #060907",
"$  c #120C05",
"%  c #130C0B",
"&  c #1B0C0C",
"*  c #180506",
"=  c #1C130C",
"-  c #14110B",
";  c #040611",
":  c #060A12",
">  c #0B0C12",
",  c #0D0F19",
"<  c #150D13",
"1  c #0D1217",
"2  c #131212",
"3  c #1C1413",
"4  c #1E191A",
"5  c #1A1718",
"6  c #260906",
"7  c #23120E",
"8  c #2C140C",
"9  c #2C190A",
"0  c #241513",
"q  c #2A1512",
"w  c #241A15",
"e  c #2A1B13",
"r  c #291B1A",
"t  c #331A14",
"y  c #3B1D12",
"u  c #351E1B",
"i  c #361B19",
"p  c #340F0B",
"a  c #39221A",
"s  c #28251F",
"d  c #1F1F22",
"f  c #2C1E21",
"g  c #1F222B",
"h  c #28262A",
"j  c #352826",
"k  c #2C2E37",
"l  c #393934",
"z  c #333031",
"x  c #451E0D",
"c  c #421913",
"v  c #57160C",
"b  c #711505",
"n  c #462119",
"m  c #462818",
"M  c #582619",
"N  c #593817",
"B  c #4B3817",
"V  c #722C17",
"C  c #482B23",
"Z  c #582E23",
"A  c #46312B",
"S  c #57392B",
"D  c #693628",
"F  c #7C3925",
"G  c #762B22",
"H  c #78462A",
"J  c #745137",
"K  c #724F32",
"L  c #614641",
"P  c #535357",
"I  c #94330E",
"U  c #983918",
"Y  c #922D1C",
"T  c #A43D1A",
"R  c #A93B17",
"E  c #B23D19",
"W  c #AD251C",
"Q  c #883723",
"!  c #993724",
"~  c #9A2123",
"^  c #A22A26",
"/  c #B22924",
"(  c #A83925",
")  c #B93626",
"_  c #A83E32",
"`  c #901A18",
"'  c #D01F1A",
"]  c #D12E1E",
"[  c #F4261E",
"{  c #CC1C24",
"}  c #C52E23",
"|  c #D92A25",
" . c #CB3B2A",
".. c #C63727",
"X. c #DA3928",
"o. c #E92A25",
"O. c #F62A22",
"+. c #E63826",
"@. c #F73827",
"#. c #9A401A",
"$. c #AD4417",
"%. c #A5431C",
"&. c #AC441B",
"*. c #AD4B1D",
"=. c #A74117",
"-. c #B1431A",
";. c #B54C1D",
":. c #BB491A",
">. c #B3511F",
",. c #BC511D",
"<. c #A5531E",
"1. c #894428",
"2. c #974927",
"3. c #9B562B",
"4. c #855738",
"5. c #965934",
"6. c #8E502F",
"7. c #A74B23",
"8. c #B44927",
"9. c #AE5423",
"0. c #A65328",
"q. c #B35323",
"w. c #BB5323",
"e. c #BB5C25",
"r. c #BB5C2B",
"t. c #B45928",
"y. c #A55535",
"u. c #9C7A2D",
"i. c #AE682D",
"p. c #BB642B",
"a. c #A66739",
"s. c #B56A36",
"d. c #B67439",
"f. c #C4541D",
"g. c #CC551D",
"h. c #D65A1D",
"j. c #C24A17",
"k. c #E7411F",
"l. c #C6691D",
"z. c #C64629",
"x. c #C35B23",
"c. c #CC5B22",
"v. c #C45929",
"b. c #D55827",
"n. c #D1532F",
"m. c #ED4226",
"M. c #E8462A",
"N. c #FB4C27",
"B. c #F74829",
"V. c #E9572A",
"C. c #F45B2B",
"Z. c #FB5C2A",
"A. c #FD5627",
"S. c #F75632",
"D. c #CD6324",
"F. c #CC6D2C",
"G. c #C66529",
"H. c #D46424",
"J. c #D56C2B",
"K. c #D76929",
"L. c #CB722E",
"P. c #CE7D26",
"I. c #D8742B",
"U. c #C56C34",
"Y. c #CC7335",
"T. c #CA7938",
"R. c #D57B35",
"E. c #D77836",
"W. c #E76928",
"Q. c #FB622D",
"!. c #F76929",
"~. c #E37529",
"^. c #E97729",
"/. c #F57B2B",
"(. c #F9782B",
"). c #EF6433",
"_. c #E77931",
"`. c #F97732",
"'. c #FA6833",
"]. c #955B43",
"[. c #95684B",
"{. c #B57742",
"}. c #BE7D52",
"|. c #AF7754",
" X c #C47946",
".X c #D27146",
"XX c #DC8C3B",
"oX c #D98738",
"OX c #DB9737",
"+X c #CF8334",
"@X c #FA832B",
"#X c #FC8C2D",
"$X c #F5882D",
"%X c #F6932D",
"&X c #F99C2D",
"*X c #E98734",
"=X c #F58333",
"-X c #FD8A31",
";X c #F68536",
":X c #FC9C34",
">X c #FE933A",
",X c #F79637",
"<X c #E99333",
"1X c #F9A739",
"2X c #FBB43B",
"3X c #F4B539",
"4X c #EFA436",
"5X c #F6C339",
"6X c #F9D23C",
"7X c #E6C53C",
"8X c #F0E53C",
"9X c #B48357",
"0X c #BD8662",
"qX c #C78446",
"wX c #D78845",
"eX c #DC9647",
"rX c #D08451",
"tX c #DE9858",
"yX c #CE8E51",
"uX c #E58A45",
"iX c #E3934B",
"pX c #E79947",
"aX c #F79B47",
"sX c #EA9551",
"dX c #DFA24F",
"fX c #E9A649",
"gX c #F7A747",
"hX c #FAB749",
"jX c #E6A75A",
"kX c #F7A855",
"lX c #EEB65C",
"zX c #F6B857",
"xX c #D9B068",
"cX c #E7AD64",
"vX c #F4A868",
"bX c #E8B76A",
"nX c #FAAF6B",
"mX c #FBC55A",
"MX c #F5C662",
"NX c #FCD36A",
"BX c #EDC275",
"VX c #E9C87D",
"CX c #F9D47A",
"ZX c #FFE876",
"AX c #E7F042",
"SX c #FEE69A",
"DX c #FFE98B",
"FX c #FADEA4",
"GX c #F2D189",
"HX c None",
/* pixels */
"HXHXHXHXHXHXHXHXHXHXHXHXHXHXHXHXHXHXHXHXHXHXHXHXHXHXHXHXHXHXHXHXHXHXHXHXHXHXHXHXHXHXHXHXHXHXHXHXHXHXHXHXHXHXHXHXHXHXHXHXHXHXHXHX",
"HXHXHXHXHXHXHXHXHXHXHXHXHXHXHXHXHXHXHXHXHXHXHXHXHXHXHXHXHXHXHXHXHXHXHXHXHXHXHXHXHXHXHXHXHXHXHXHXHXHXHXHXHXHXHXHXHXHXHXHXHXHXHXHX",
"HXHXHXHXHXHXHXHXHXHXHXHXHXHXHXHXHXHXHXHXHXHXHXHXHXHXHXHXHXHXHXHXHXHXHXHXHXHXHXHXHXHXHXHXHXHXHXHXHXHXHXHXHXHXHXHXHXHXHXHXHXHXHXHX",
"HXHXHXHXHXHXHXHXHXHXHXHXHXHXHXHXHXHXHXHXHXHXHXHXHXHXHXHXHXHXHXHXHXHXHXHXHXHXHXHXHXHXHXHXHXHXHXHXHXHXHXHXHXHXHXHXHXHXHXHXHXHXHXHX",
"HXHXHXHXHXHXHXHXHX9X9XHXHXHXHXHXHXHXHXHXHXHXHXHXHXHXHXHXHXHXHXHXHXHXHXHXHXHXHXHXHXHXHXHXHXHXHXHXHXHXHXHXHXHXHX|.0XHXHXHXHXHXHXHX",
"HXHXHXHXHXHXHXHXHX+X XHXHXHXHXHXHXHXHXHXHXHXHXHXHXHXHXHXHXHXHXHXHXHXHXHXHXHXHXHXHXHXHXHXHXHXHXHXHXHXHXHXHXHXHX X|.HXHXHXHXHXHXHX",
"HXHXHXHXHXHXHXHXHXp.p.HXHXHXHXHXHXHXHXHXHXHXHXHXHXHXHXHXHXHXHXHXHXHXHXHXHXHXHXHXHXHXHXHXHXHXHXHXHXHXHXHXHXHXHX X XHXHXHXHXHXHXHX",
"HXHXHXHXHXHXHXHXHXJ.J.HXHXHXHXHXHXHXHXHXHXHXHXHXHXHXHXHXHXHXHXHXHXHXHXHXHXHXHXHXHXHXHXHXHXHXHXHXHXHXHXHXHXHXHX{. XHXHXHXHXHXHXHX",
"HXHXHXHXHXHXHXHXHXD.D.HXHXHXHXHXHXHXHXHXHXHXHXHXHXHXHXHXHXHXHXHXHXHXHXHXHXHXHXHXHXHXHXHXHXHXHXHXHXHXHXHXHXHX5. XHXHXHXHXHXHXHXHX",
"HXHXHXHXHXHXHXHXHXJ.e.HXHXHXHXHXHXHXHXHXHXHXHXHXHXHXHXHXHXHXHXHXHXHXHXHXHXHXHXHXHXHXHXHXHXHXHXHXHXHXHXHXHXHX3.i.HXHXHXHXHXHXHXHX",
"HXHXHXHXHXHXHXHXHXW.G.<.HXHXHXHXHXHXHXHXHXHXHXHXHXHXHXHXHXHXHXHXHXHXHXHXHXHXHXHXHXHXHXHXHXHXHXHXHXHXHXHXHXHXa.T.HXHXHXHXHXHXHXHX",
"HXHXHXHXHXHXHXHXHX^.D.q.HXHXHXHXHXHXHXHXHXHXHXHXHXHXHXHXHXHXHXHXHXHXHXHXHXHXHXHXHXHXHXHXHXHXHXHXHXHXHXHXHXHXs.qXHXHXHXHXHXHXHXHX",
"HXHXHXHXHXHXHXHXHXW.f.$.HXHXHXHXHXHXHXHXHXHXHXHXHXHXHXHXHXHXHXHXHXHXHXHXHXHXHXHXHXHXHXHXHXHXHXHXHXHXHXHXHXHXT.U.HXHXHXHXHXHXHXHX",
"HXHXHXHXHXHXHXHXHX~.H.c.HXHXHXHXHXHXHXHXHXHXHXHXHXHXF ( ..M.M.S.z.) _ 8.( ^ HXHXHXHXHXHXHXHXHXHXHXHXHXHXHXHXdX+XHXHXHXHXHXHXHXHX",
"HXHXHXHXHXHXHXHXHXW.H.f.HXHXHXHXHXHXHXHXHXHXHX! ( -. .+.+.V.!.(.).+.B.S.S...R Q F HXHXHXHXHXHXHXHXHXHXHXHXHXsXeXHXHXHXHXHXHXHXHX",
"HXHXHXHXHXHXHXHXHX^.~.D.HXHXHXHXHXHXHXHXF F ( X.@.O.m.C./.%X4XOXOX3X1X-X).B.@.M.X.} ^ Q HXHXHXHXHXHXHXHX1.T.pX.XHXHXHXHXHXHXHXHX",
"HXHXHXHXHXHXHXHXHXgX>XW.;.HXHXHXHXHXHX! (  .+.+.O.@.C.$X#X$X*Xu.K p.*X3X&X!.o.o.o.o.) U Q Q HXHXHXHXHX1.2.pXmXdXHXHXHXHXHXHXHXHX",
"HXHXHXHXHXHXHXHXHX-X-X_.v.HXHXHXHXHX^ ..B.N.N.C.$X1X4X!.m.B.t.9 m 8.W.%X&X%X$X'.Q.C.m.X.} ( 1.6.{.cXBXbXjXMXMXdXHXHXHXHXHXHXHXHX",
"HXHXHXHXHXHXHXHXHX#X-X@XF.HXHXHXv.) n.(.@X!.(.gX2X/.W.+.o.+.U     3.M.O.o.!.$X^.V.C.N.m.) ! 1.y.{.qXxXBXNXNXzXiXHXHXHXHXHXHXHXHX",
"HXHXHXHXHXHXHXHXHX:X/.h.c.L.OX2X1X&X(.@X@X@X(.(.`.C.+.o.+.%.7     N R { { @.N.Z._.!.N.B.W.J.H.b.b.n.E.qXeXgXgXiXHXHXHXHXHXHXHXHX",
"HXHXHXHXHXHXHXHXHXY.#XW.V.(.2X6X3X$X%X5X6X7X(.O.O.X./ ^ p.i.m     B t.) ~ W ' +.S.`.$X&X#XQ.B.Q.#X,XT.d.eXzXkXiXHXHXHXHXHXHXHXHX",
"HXHXHXHXHXHXHXHXHX+X:X*XJ.n.z.8.h.$X5X8X8X7X^.k.m.V.X.W E T x     B q.} ' | ] +.`.:X,XW.X.X.C.-X/.w.! s.pXzXzXiXHXHXHXHXHXHXHXHX",
"HXHXHXHXHXHXHXHXHXL.@X(./.K.) ~ ( b.Q.A.!.#X4X4X=X(.'.B.@.z.N     ` | @.@.Z.=X%X$X(.Z.A.!.^.I.c.! G 5.XXgXgXgXiXHXHXHXHXHXHXHXHX",
"HXHXHXHXHXHXHXHXHXW.W.W.^.^.U.3.! ^ } | O.V.;X1X1X,X(.Z.A.).3.  p } S.`.4X5XhX=Xk.[ @.A.(.HXHXHXHXQ p.*X:XgXaXT.HXHXHXHXHXHXHXHX",
"HXHXHXHXHXHXHXHXHXH.c.h.^.1XfXd.HXHXHXHXX.X.@.@.B.'.hX6X&X!.).oXOX1X2X1X$X!.Z.Q.Z.m.| M.HXHXHXHXHXd.XX,X;XaXuXE.HXHXHXHXHXHXHXHX",
"HXHXHXHXHXHXHXHXHXH.D.G.K.^.<XpXHXHXHXHXHXHXz. . .X.).1X5XhX>X>X1XhXgX*XQ.S.S.Z.V. .HXHXHXHXHXHXHXl.I.~._._.oXT.HXHXHXHXHXHXHXHX",
"HXHXHXHXHXHXHXHXHXb.c.x.f.f.h.W.HXHXHXHXHXHXHXHXHX/ | @.'.aXhX>XQ.@.| +.M.M.z.HXHXHXHXHXHXHXHXHXHXD.K.H.G.Y.Y.t.HXHXHXHXHXHXHXHX",
"HXHXHXHXHXHXHXHXHXf.j.8.>.,.h.H.F.s.HXHXHXHXHXHXHXHX! ^ / } 8.z.) } ) ..HXHXHXHXHXHXHXHXHXHXHXHX*.c.I.F.G.U.s.0.HXHXHXHXHXHXHXHX",
"HXHXHXHXHXHXHXHXHX:.-.&.8.f.g.h.c.9.HXHXHXHXHXHXHXHXHXHXHXHXHXHXHXHXHXHXHXHXHXHXHXHXHXHXHXHXHXHX:.j.f.x.p.U.p.0.HXHXHXHXHXHXHXHX",
"HXHXHXHXHXHXHXHXHXE T T ;.;.-.:.g.e.3.HXHXHXHXHXHXHXHXHXHXHXHXHXHXHXHXHXHXHXHXHXHXHXHXHXHXHX#.&.;.w.e.t.t.G.r.2.HXHXHXHXHXHXHXHX",
"HXHXHXHXHXHXHXHXHXR R 7.%.$.=.T E :.e.HXHXHXHXHXHXHXHXHXHXHXHXHXHXHXHXHXHXHXHXHXHXHXHXHXHXHX%.$.;.;.>.9.q.0.0.HXHXHXHXHXHXHXHXHX",
"HXHXHXHXHXHXHXHXHXI =.-.&.T %.U U E q.0.HXHXHXHXHXHXHXHXHXHXHXHXHXHXHXHXHXHXHXHXHXHXHXHXHX7.&.&.=.=.%.*.t.0.3.HXHXHXHXHXHXHXHXHX",
"HXHXHXHXHXHXHXHXHXU =.$.=.%.7.T R R R R HXHXHXHXHXHXHXHXHXHXHXHXHXHXHXHXHXHXHXHXHXHXHXHXHX*.-.R R T &.t.r.y.7.HXHXHXHXHXHXHXHXHX",
"HXHXHXHXHXHXHXHXHX=.-.>.q.%.T T T T R ;.;.0.HXHXHXHXHXHXHXHXHXHXHXHXHXHXHXHXHXHXHXHXHXHX$.$.E -.7.&.%.9.r.t.2.HXHXHXHXHXHXHXHXHX",
"HXHXHXHXHXHXHXHXHXHX>.p.q.R T =.&.&.,.f.h.x.3.HXHXHXHXHXHXHXHXHXHXHXHXHXHXHXHXHXHXHX0.;.j.;.q.7.&.&.%.q.r.0.HXHXHXHXHXHXHXHXHXHX",
"HXHXHXHXHXHXHXHXHXHXF s.J.w.;.q.w.v.G.G.D.~.oXi.4.HXHXHXHXHXHXHXHXHXHXHXHXHXHXHXHXi.K.h.f.e.e.w.-.=.9.p.Y.Y.HXHXHXHXHXHXHXHXHXHX",
"HXHXHXHXHXHXHXHXHX6 M r.uXE.w.,.e.L.R.R.R.T.*X&XXX{.HXHXHXHXHXHXHXHXHXHXHXHXHXqXT.R.I.x.e.G.L.F.G.e.p.oXwXH HXHXHXHXHXHXHXHXHXHX",
"HXHXHXHXHXHXHXHXHX6 M a.sX*XG.v.G.L.oXuXOX+XP.+X1XMXxXbXHXHXHXV HXHXHXHXHXHXbXgX<X*XoXE.J.J.R.oX XqXiXiXy.p   HXHXHXHXHXHXHXHXHX",
"HXHXHXHXHXHXHXHXHX6 6 V  XsX+XL.F.L.L.R.+XoXoXOXjXCXSXDXNXzXG.b Q yXmXmXhXMXMXfXOXoXXXXXR.R.+XrXiXaXsXy.9     . HXHXHXHXHXHXHXHX",
"HXHXHXHXHXHXHXHXHX.   * D rXkXXXT.J.F.L.oXjXjXlXBXGXFXSXCXkXw.b I oXgXgXgXzXMXfXoXoXdXiXoXY.T.XXgXuX1.6         % c HXHXHXHXHXHX",
"HXHXHXHXHXHXHXHXHX& %   . Z  XnXpXE.U..XjXcXnXbXBXVXVXGXNXaX#.v b l.hXmXzXfXfXpXwXiXeX+XD.I.aXkXs.x           o q M H ].K HXHXHX",
"HXHXHXHXHXHXHXHXHX0 *       7 J wXsXuXtXbXlXjXbXnXGXGXnXE.E ` x . v d.NXZXNXlXfXiXpXkXaXuXJ.r.D %             @ r Z Q 2.Q M HXHX",
"HXHXHXHXHX8 & % % O o O # o     7 M 1. XtXcXcXtXtXvXvX|.v 6 p =     Z .XnXsXrXrXjXjX X2.V 6 .     # . .     o o       p M M HXHX",
"HXHXHXHXHXHXx .   # X < & $ # #       . i 6..X.X_ b c . o             p V ( 8.r.y.D =           o $ $           X 0 u Z n p HXHX",
"HXHXHXHXHX1.1.D Z j q 7 = 2 - * * .       & t t 2 o     # .               # w C a <       .     . = = @     $ 9 a M M n 7 X HXHX",
"HXHXHX& 7 i C S D D c r 3 3 3 q 8 % & n C e           O . X O                     . a m y *     . $ = - $ = 7 e e e 8 % #   HXHX",
"HXHXHX    # % 0 u n u 0 3 3 2 < p D [.5.a   . w w % O 7 t t = % - - - @ X % % %     9 H a.H 7     $ 7 = $ X X @ @ #     # @ HXHX",
"HXHXHXj 4 #       O 3 w 3 % < A [.0X].c - e a y q & 3 7 0 8 0 3 = = = = = 3 3 % = e 0 c 1.{.9XJ a 6 = = - #             2 h HXHX",
"HXHXHXz f & 0 4 2 @ % < 0 a K [.].j - % w = O       .               O           . a A a 7 m J J C w 7 e w % o o O < O   < k HXHX",
"HXHXHXj f w r u i e e 7 & a S S 3     @ #                                         . h l z 2     # 5 r f r % @ > > > @   2 h HXHX",
"HXHXHXw 5 4 f j a u j j 4   @ l J j .   @ #                                             = j h 5 o   - = 3 , : 1 , , o   @ h HXHX",
"HXHXHXh 5     @ 4 h j j 0 . @ r j 4         #                                 #   o       X 5 2 # o 1 1 > > 1 > O     @ z P HXHX",
"HXHXHXHXHXHX      % r r w O   .             o o o   o                         o # #                 : , : o         HXHXHXHXHXHX",
"HXHXHXHXHXHXHXHX    + , +   # O .           o o o o o                           o o                     o o     HXHXHXHXHXHXHXHX",
"HXHXHXHXHXHXHXHXHX        # @ +               o o o o                                                       @ h HXHXHXHXHXHXHXHX",
"HXHXHXHXHXHXHXHXHXh 2       # + #         #     o   o     o o                   o             o             > HXHXHXHXHXHXHXHXHX",
"HXHXHXHXHXHXHXHXHXHX1     + ; + @           o + o o   o o o o                                               HXHXHXHXHXHXHXHXHXHX",
"HXHXHXHXHXHXHXHXHXHX1 , : : o o         o o o o o o o o o o         o o o   #   o                           HXHXHXHXHXHXHXHXHXHX",
"HXHXHXHXHXHXHXHXHXHXk g >   o         o ; + @ + O   o o o ; o       o o o   o o o o             o       @ @ HXHXHXHXHXHXHXHXHXHX",
"HXHXHXHXHXHXHXHXHXHXh 5 o o + +       o ; o o : o o + + : o + + o o   # o o   O o ;           o o o     h k HXHXHXHXHXHXHXHXHXHX",
"HXHXHXHXHXHXHXHXHXHXo     o ; o     o + > + + o : + O : @ ; @ o # # # # o + + + o o     o         o     @ h HXHXHXHXHXHXHXHXHXHX",
"HXHXHXHXHXHXHXHXHXHX    o o ; o       @ : : o + + + + + @ @ o ; : : : + ; + + ; O + o o o o o     o       5 k HXHXHXHXHXHXHXHXHX",
"HXHXHXHXHXHXHXHXHX      o ; ; o     o + @ ; ; : : O O + @ > > : + + + + + : : + + o o o o o o o             # HXHXHXHXHXHXHXHXHX",
"HXHXHXHXHXHXHXHXHX  o o ; o + o   o o : > @ o o O O + O > 1 + # + : : : + + ; o o o + ; ; ;           o o     HXHXHXHXHXHXHXHXHX"
};
