/* XPM */
static char *_616353801957[] = {
/* columns rows colors chars-per-pixel */
"64 64 252 2 ",
"   c #010002",
".  c #00000A",
"X  c #150505",
"o  c #14100D",
"O  c #380A07",
"+  c #291D16",
"@  c #361C15",
"#  c #2E0A0F",
"$  c #3A261C",
"%  c #2F2116",
"&  c #392A25",
"*  c #480508",
"=  c #53150D",
"-  c #471915",
";  c #561814",
":  c #53100D",
">  c #64150A",
",  c #75180D",
"<  c #651A15",
"1  c #771A16",
"2  c #6C0C0D",
"3  c #4C2D1C",
"4  c #42271B",
"5  c #58271A",
"6  c #55311F",
"7  c #68271A",
"8  c #7C2C1E",
"9  c #782719",
"0  c #6D341E",
"q  c #76321B",
"w  c #442D24",
"e  c #483228",
"r  c #543322",
"t  c #5C3522",
"y  c #5D3E2B",
"u  c #563928",
"i  c #533832",
"p  c #6B2823",
"a  c #653A24",
"s  c #6B3C24",
"d  c #6B3D29",
"f  c #633726",
"g  c #773926",
"h  c #73272B",
"j  c #5D4536",
"k  c #6D4129",
"l  c #6B4024",
"z  c #744325",
"x  c #73452B",
"c  c #7B4A2C",
"v  c #7A452A",
"b  c #664939",
"n  c #7B4D33",
"m  c #764C36",
"M  c #7A5339",
"N  c #7C502F",
"B  c #70411E",
"V  c #785A45",
"C  c #7D604B",
"Z  c #8B190D",
"A  c #871C17",
"S  c #961A14",
"D  c #94180C",
"F  c #A91E0E",
"G  c #95250E",
"H  c #8B2B19",
"J  c #882919",
"K  c #9A2C1D",
"L  c #982817",
"P  c #88341B",
"I  c #9D3B1A",
"U  c #983419",
"Y  c #882C0E",
"T  c #A2291A",
"R  c #B72B1A",
"E  c #A6371C",
"W  c #B43718",
"Q  c #A02609",
"!  c #8B2C25",
"~  c #982824",
"^  c #883827",
"/  c #983827",
"(  c #923A34",
")  c #A62C21",
"_  c #A33423",
"`  c #A83827",
"'  c #BC3A23",
"]  c #B53A26",
"[  c #A93C34",
"{  c #B32C28",
"}  c #CB3E1B",
"|  c #C43D29",
" . c #C83B30",
".. c #A54318",
"X. c #B2471D",
"o. c #BB5D1E",
"O. c #89482C",
"+. c #994727",
"@. c #86542E",
"#. c #995228",
"$. c #844B37",
"%. c #934832",
"&. c #855435",
"*. c #8A5535",
"=. c #8D5A3A",
"-. c #89593A",
";. c #945C3B",
":. c #995E3D",
">. c #935736",
",. c #AB422C",
"<. c #AC4B2D",
"1. c #A64828",
"2. c #BC452B",
"3. c #BB4B2B",
"4. c #B74828",
"5. c #A95129",
"6. c #BA572A",
"7. c #A84835",
"8. c #B44C34",
"9. c #B94935",
"0. c #A95A38",
"q. c #BD5232",
"w. c #B85838",
"e. c #9C623E",
"r. c #94603A",
"t. c #8B623F",
"y. c #B7652E",
"u. c #A3653E",
"i. c #A6693C",
"p. c #B7693C",
"a. c #BF723D",
"s. c #C84A1D",
"d. c #C44E2C",
"f. c #C74929",
"g. c #CB532C",
"h. c #C45C2C",
"j. c #CE5B2E",
"k. c #C35428",
"l. c #D55C2A",
"z. c #C44D3A",
"x. c #C54934",
"c. c #D04E32",
"v. c #CC5C34",
"b. c #CB543B",
"n. c #C45D3B",
"m. c #CB5C3B",
"M. c #C55635",
"N. c #D35C3B",
"B. c #D65C38",
"V. c #D74928",
"C. c #C9652D",
"Z. c #DB672C",
"A. c #CE6B3D",
"S. c #C86538",
"D. c #D56233",
"F. c #DA6B35",
"G. c #D3623C",
"H. c #D56A3C",
"J. c #D96A38",
"K. c #DB763B",
"L. c #D27534",
"P. c #E26D3B",
"I. c #E2773B",
"U. c #935A43",
"Y. c #B55C43",
"T. c #A55743",
"R. c #8B6347",
"E. c #9D6341",
"W. c #966547",
"Q. c #9C7458",
"!. c #9D6A50",
"~. c #A26542",
"^. c #A56944",
"/. c #AB6A44",
"(. c #A86949",
"). c #B26D44",
"_. c #B26E49",
"`. c #BC6746",
"'. c #AB714E",
"]. c #BC734B",
"[. c #B8764B",
"{. c #BA7B53",
"}. c #AC7057",
"|. c #C85943",
" X c #D45A43",
".X c #C75146",
"XX c #CB6945",
"oX c #DB6D44",
"OX c #D86748",
"+X c #C3744C",
"@X c #C37A4E",
"#X c #C8754A",
"$X c #DC7244",
"%X c #DA7747",
"&X c #C67A54",
"*X c #DA7757",
"=X c #D46B53",
"-X c #E26B46",
";X c #E27543",
":X c #E47C44",
">X c #E97B42",
",X c #E3744A",
"<X c #E47C4C",
"1X c #EA7C4D",
"2X c #EA7444",
"3X c #E57854",
"4X c #E76C55",
"5X c #DC7E63",
"6X c #E5843B",
"7X c #EB8C3C",
"8X c #EB833B",
"9X c #EC943B",
"0X c #F4993C",
"qX c #EC8837",
"wX c #E5923F",
"eX c #BD8156",
"rX c #BE8764",
"tX c #D98249",
"yX c #CB875B",
"uX c #D58759",
"iX c #DB905E",
"pX c #EA8749",
"aX c #F48C49",
"sX c #ED9548",
"dX c #F39648",
"fX c #EC8354",
"gX c #E88657",
"hX c #F3885A",
"jX c #E99658",
"kX c #F59353",
"lX c #F89C56",
"zX c #F5A84A",
"xX c #F7B34F",
"cX c #F7AC56",
"vX c #F5B653",
"bX c #EEA449",
"nX c #C58663",
"mX c #D88C64",
"MX c #DB9769",
"NX c #D79774",
"BX c #E88765",
"VX c #F38863",
"CX c #E79668",
"ZX c #F39567",
"AX c #E89A73",
"SX c #F7A966",
"DX c #F2AE6A",
"FX c #F7B491",
"GX c #F0BCAB",
"HX c #DFAB89",
"JX c #F7C9A6",
"KX c None",
/* pixels */
"KXKXKXKXKXKXKXKXKXKXKXKXKXKXKXKXKXKXKXKXKXKXKXKXKXKXKXKXKXKXKXKXKXKXKXKXKXKXKXKXKXKXKXKXKXKXKXKXKXKXKXKXKXKXKXKXKXKXKXKXKXKXKXKX",
"KXKXKXKXKXKXKXKXKXKXKXKXKXKXKXKXKXKXKXKXKXKXKXKXKXKXKXKXKXKXKXKXKXKXKXKXKXKXKXKXKXKXKXKXKXKXKXKXKXKXKXKXKXKXKXKXKXKXKXKXKXKXKXKX",
"KXKXKXKXKXKXKXKXKXKXKXKXKXKXKXKXKXKXKXKXKXKXKXKXKXKXKXKXKXKXKXKXKXKXKXKXKXKXKXKXKXKXKXKXKXKXKXKXKXKXKXKXKXKXKXKXKXKXKXKXKXKXKXKX",
"o KXKXKXKXKXKXKXKXKXKXKXKXKXKXKXKXKXKXKXKXKXKXKXKXKXKXKXKXKXKXKXKXKXKXKXKXKXKXKXKXKXKXKXKXKXKXKXKXKXKXKXKXKXKXKXKXKXKXKXKXKXKXKX",
"+ KXKXKXKXKXKXKXKXKXKXKXKXKXKXKXKXKXKXKXKXKXKXKXKXKXKXKXKXKXKXKXKXKXKXKXKXKXKXKXKXKXKXKXKXKXKXKXKXKXKXKXKXKXKXKXKXKXKXKXKXKXKX& ",
"$ KXKXKXKXKXKXKXKXKXKXKXKXKXKXKXKXKXKXKXKXKXKXKXKXKXKXKXKXKXKXKXKXKXKXKXKXKXKXKXKXKXKXKXKXKXKXKXKXKXKXKXKXKXKXKXKXKXKXKXKXKXKXe ",
"e KXKXKXKXKXKXKXKXKXKXKXKXKXKXKXKXKXKXKXKXKXKXKXKXKXKXKXKXKXKXKXKXKXKXKXKXKXKXKXKXKXKXKXKXKXKXKXKXKXKXKXKXKXKXKXKXKXKXKXKXKXKXj ",
"& KXKXKXKXKXKXKXKXKXKXKXKXKXKXKXKXKXKXKXKXKXKXKXKXKXKXKXKXKXKXKXKXKXKXKXKXKXKXKXKXKXKXKXKXKXKXKXKXKXKXKXKXKXKXKXKXKXKXKXKXKXKXi ",
"e KXKXKXKXKXKXKXKXKXKXKXKXKXKXKXKXKXKXKXKXKXKXKXKXKXKXKXKXKXKXKXKXKXKXKXKXKXKXKXKXKXKXKXKXKXKXKXKXKXKXKXKXKXKXKXKXKXKXKXKXKXKXj ",
"i KXKXKXKXKXKXKXKXKXKXKXKXKXKXKXKXKXKXKXKXKXKXKXKXKXKXKXKXKXKXKXKXKXKXKXKXKXKXKXKXKXKXKXKXKXKXKXKXKXKXKXKXKXKXKXKXKXKXKXKXKXKXj ",
"j KXKXKXKXKXKXKXKXKXKXKXKXKXKXKXKXKXKXKXKXKXKXKXKXKXKXKXKXKXKXKXKXKXKXKXKXKXKXKXKXKXKXKXKXKXKXKXKXKXKXKXKXKXKXKXKXKXKXKXKXKXKXV ",
"b KXKXKXKXKXKXKXKXKXKXKXKXKXKXKXKXKXKXKXKXKXKXKXKXKXKXKXKXKXKXKXKXKXKXKXKXKXKXKXKXKXKXKXKXKXKXKXKXKXKXKXKXKXKXKXKXKXKXKXKXKXKXj ",
"b KXKXKXKXKXKXKXKXKXKXKXKXKXKXKXKXKXKXKXKXKXKXKXKXKXKXKXKXKXKXKXKXKXKXKXKXKXKXKXKXKXKXKXKXKXKXKXKXKXKXKXKXKXKXKXKXKXKXKXKXKXKXV ",
"M KXKXKXKXKXKXKXKXKXKXKXKXKXKXKXKXKXKXKXKXKXKXKXKXKXKXKXKXKXKXKXKXKXKXKXKXKXKXKXKXKXKXKXKXKXKXKXKXKXKXKXKXKXKXKXKXKXKXKXKXKXKXC ",
"V KXKXKXKXKXKXKXKXKXKXKXKXKXKXKXKXKXKXKXKXKXKXKXKXKXKXKXKXKXKXKXKXKXKXKXKXKXKXKXKXKXKXKXKXKXKXKXKXKXKXKXKXKXKXKXKXKXKXKXKXKXKXC ",
"x + KXKXKXKXKXKXKXKXKXKXKXKXKXKXKXKXKXKXKXKXKXKXKXKXKXKXKXKXKXKXKXKXKXKXKXKXKXKXKXKXKXKXKXKXKXKXKXKXKXKXKXKXKXKXKXKXKXKXKXKXKXC ",
"V % KXKXKXKXKXKXKXKXKXKXKXKXKXKXKXKXKXKXKXKXKXKXKXKXKXKXKXKXKXKXKXKXKXKXKXKXKXKXKXKXKXKXKXKXKXKXKXKXKXKXKXKXKXKXKXKXKXKXKXKX@ R.",
"W.$ KXKXKXKXKXKXKXKXKXKXKXKXKXKXKXKXKXKXKXKXKXKXKXKXKXKXKXKXKXKXKXKXKXKXKXKXKXKXKXKXKXKXKXKXKXKXKXKXKXKXKXKXKXKXKXKXKXKXKXKX$ Q.",
"R.w KXKXKXKXKXKXKXKXKXKXKXKXKXKXKXKXKXKXKXKXKXKXKXKXKXKXKXg v 0 x O.g 7 7 5 5 5 4 @ KXKXKXKXKXKXKXKXKXKXKXKXKXKXKXKXKXKXKXKX& Q.",
"R.4 KXKXKXKXKXKXKXKXKXKXKXKXKXKXKXKXKXKXKXKXp 7 8 / O.KX^ a.#.> ^ %.P P q O.@.^ q q 0 7 5 3 KXKXKXKXKXKXKXKXKXKXKXKXKXKXKXKX$ Q.",
"=.w KXKXKXKXKXKXKXKXKXKXKXKXKXKXKXKXKXKX;.'.`.#.P 8.6.+.<.y.U ! Y.1./ 8.w.1.+.^ P +.^ ^ 0.>.#.0 KXKXKXKXKXKXKXKXKXKXKXKXKXKX$ W.",
"-.y KXKXKXKXKXKXKXKXKXKXKXKXKXKXKXKXE.uXDXjXtXL.tXK.L.A.%X6.I |.XXXX.Xn.XX..I <.w.w.5.8.8.#.y.a.O.KXKXKXKXKXKXKXKXKXKXKXKXKXe Q.",
"=.b KXKXKXKXKXKXKXKXKXKXKXKXKX- @.p.S.5.I 6.y.6...C.lX2XOX3X<X$XC.tXiX<.L <.p.A.XX%XH.9.` 6.A.%X+Xg KXKXKXKXKXKXKXKXKXKXKXKXu rX",
"t.y KXKXKXKXKXKXKXKXKXKXKXKXf 1...4.q.~ A K q.OX X2.4.x.K H kXaX..C.SX%Xm.%Xh.E M.XXXXA.q.S.h.v.*XY.g KXKXKXKXKXKXKXKXKXKXKXu {.",
"c k KXKXKXKXKXKXKXKXKXKXKX%.=X1.8.,.U / [ m.F.I.2X X9 * : 1 hX|.X = =XJ.K.pXfXXXA.q.A.oX,X$XG.v.G.=Xp.(.KXKXKXKXKXKXKXKXKXKXu [.",
"e.=.KXKXKXKXKXKXKXKXKXKX5 8.M.q.XX7.H J U m.F.Z.N.9.P * # ! } :     : N.G.H.6XlXkXkXpXj.F.1X3X3XBXgX<Xw.+.KXKXKXKXKXKXKXKXKX$ ^.",
"&X{.KXKXKXKXKXKXKXKX4 p < ,.OX,XOX,.,./ J J I G ~ 1 8 O.; 2.}       - 5XW W W X.$XdXaXK.D.V.3XgX<X<X:XaXpXJ.KXKXKXKXKXKXKXKX% !.",
"=X@XKXKXKXKXKXKXKX5 ! [ / XX*X*XhXXX9.,.,.H 1 ! ! 1 1 %.7.2XN.      h GXD.2 ~ ` x.,XcXdXZ.} g.$X;X<XkXcXzX7XwXe.KXKXKXKXKXKX+ W.",
"&X].KXKXKXKXKXKX- ! 2. Xq.Y.5XoXZXZXq.E q.4._ 7.( 1 * * H FXNX      X AXgX; < ! ' D.kXdXpXP.c.4X3XB.F.pXdXdXcXjXy.KXKXKXKXKX$ t.",
"_.@X'.KXKXKXKXf %.9.d.3.3.<.S.h.F.A.gX%XS.M._ _ J < # # 0.FX+X  .     4.s.A : ! .XB.Z.K.fX1XgXBX5XOXg.I.sXzXcXbX7Xy.KXKXKXKXw M ",
"yXgXuXKXKXKX^ 9.d.B.N.g.E <.mXA.X...K.pXo.1.` 8._ 1 - 5 +.W O         _. X~ < < S B.BXl.g.l.F.pXZXZXCXSXxXxXxXbX9X6Xw.KXKXKXy &.",
"#XuXiX0 KXp _ ] f.P.P.C.k.oXXXw.6.6.K.kXC.E z.] ) 8.g g , S #         GXFXS ! O.1.E 4.f.f.W ' c.kXSXDXDXvXvXvXvXsX7X>X0.5 5 W./.",
"+X#XuXT.( %.` n.J.K.pX0X0XC.4.h.D.L.K.pXH.] ) T { ( 7 ; < { #         FXJX2.1 U 8.U G { 9.{ ] d.F.jXDXvXvXxXzXxXzXo.E 5.O.g nX].",
"p.`.CXCX_.#X3X,XkX0XbXzX9XqXsXdXsX:XK.d.3.S.] ] ~ 2 O - 7 ~ # .   . . NXjXT H ` R x.z.b.=X,X*XpXpXgXsX0XzXdXqXL.1X#XO.7 g (.CX&X",
"[.MXDXBXKXKXw.H.7X0X0XzXzX0X9X6X<X$XJ.oXm.oXm.{ [ ( = 5 ; z.[       . HX2XD A U ` ] | *XZXVX:XD.Z.pXkX7X9XsXqXj.9.T.KXKXKXW.mX*X",
"eXeX&XnXKXKXKX/ g.qX0XbXdX8XF.6.j.v.G.3.d.$X] T 1 > 8 p * *X*X      o JXfXD 2 9 ` T T j.1X,XD.Z.I.I.I.I.qXaXI.3.KXKXKXKXKXU.+X0.",
"^.^.).eXKXKXKXKX! P.aX8XaXK.%XoXG.G.OXN.d.3.,.7.K L *XY.2 Y.mX  .   e JXoX5.T.! ~ S ~ R 2.4X,X-XhX>XI.pX>XD.U KXKXKXKXKXKX!.+X`.",
"(.'./.eXKXKXKXKXKXP x.2.D.kXsXpXS.4.v.G.v.U _ z.' R | |.#./ |   .   W.FXG = ( [ x.x.] ) ~ z.3XhXfX;X:XaXI.4.KXKXKXKXKXKXKXR.>.U.",
"(.i.[.yXQ.KXKXKXKXKXKXJ k.lXlXK.h.2.d.OX<XH.v.m.' .X.XZ 8 7.oX;     !.-X, - : ) OXVXfX<Xm.g.1X1X>X;XP.8X%Xq KXKXKXKXKXKXKXM n n ",
"u.].mXMXMXKXKXKXKXKXKXKX+.S.pXF.-XOXN.q.3.h.3.) z. X.X9.) H ZXnX    }.d.Z ! _ ) | -X;X>X2XB.l.Z.;X<XP.s.q KXKXKXKXKXKXKXKXM z m ",
"/.uXyXiXCXKXKXKXKXKXKXKXKXq ^ E oX,X6.3.G ~ ~ ~ 9.L W 3X4X{ N.,X: i =XD T 4X1Xj. . .f.B.B.-XB.B.N.c.f.9 KXKXKXKXKXKXKXKXKX^.*.v ",
"/.+X*XuXCXKXKXKXKXKXKXKXKXKXKX7 J U ..A.w./ 8.OXS.6.<Xc.} L |.VXBX.X=X .b.b.>XkX$Xf.c.4XZ.P.1X-Xd.4.P KXKXKXKXKXKXKXKXKXKX@XyXe.",
"_.+X+X+XiXR.KXKXKXKXKXKXKXKXKXKXh P P #.XXp.y.S.6.h.oXz.S v.OX' hX1X . Xd.Z T H.h.oX=Xf.f.D.B.6.P 5 KXKXKXKXKXKXKXKXKXKXKX`.i./.",
"].`.p.@XMXNXKXKXKXKXKXKXKXKXKXKXKX5 O.O.#.#.+.5.1.U ..XX.Xv.Q F VX4XF  X3X` _ d.f.g.b.x.x.|.9.J = KXKXKXKXKXKXKXKXKXKXKXM 0.@.^ ",
"~.p.#XMXAXyXKXKXKXKXKXKXKXKXKXKXKXKXKXKXs 0 7 7 8 ^ 1.S.6.E [ XX3X X| 1X1Xl.d.G.OXW _ 8.[ ( p - KXKXKXKXKXKXKXKXKXKXKXKXU.@.z k ",
"U.0.`.uXyXa.n KXKXKXKXKXKXKXKXKXKXKXKXKXKXKXKXKXKXKXq 1.5.w.=X6.U K ,.d.v.N.3.|.8.KXKXKXKXKXKXKXKXKXKXKXKXKXKXKXKXKXKXKX&.x l k ",
"W.:.u.@X).p.yXKXKXKXKXKXKXKXKXKXKXKXKXKXKXKXKXKXKXKXKXKXKXq ^ g 7 8 J P w.Y.KXKXKXKXKXKXKXKXKXKXKXKXKXKXKXKXKXKXKXKXKXM =.W.&.d ",
";.>.~.i.i.p.MXy KXKXKXKXKXKXKXKXKXKXKXKXKXKXKXKXKXKXKXKXKXKXKXKXKXKXKXKXKXKXKXKXKXKXKXKXKXKXKXKXKXKXKXKXKXKXKXKXKXKXKXN z *.!.m ",
"*.@.e.i.u.[.uXW.KXKXKXKXKXKXKXKXKXKXKXKXKXKXKXKXKXKXKXKXKXKXKXKXKXKXKXKXKXKXKXKXKXKXKXKXKXKXKXKXKXKXKXKXKXKXKXKXKXKXr c z B N &.",
"-.*.W.^.~.yX[.[.KXKXKXKXKXKXKXKXKXKXKXKXKXKXKXKXKXKXKXKXKXKXKXKXKXKXKXKXKXKXKXKXKXKXKXKXKXKXKXKXKXKXKXKXKXKXKXKXKXKXx c x x a l ",
"-.=.E.^.'.{.[.[.M KXKXKXKXKXKXKXKXKXKXKXKXKXKXKXKXKXKXKXKXKXKXKXKXKXKXKXKXKXKXKXKXKXKXKXKXKXKXKXKXKXKXKXKXKXKXKXKXKX&.v x k d k ",
"&.r.E.^.(./.).].nXKXKXKXKXKXKXKXKXKXKXKXKXKXKXKXKXKXKXKXKXKXKXKXKXKXKXKXKXKXKXKXKXKXKXKXKXKXKXKXKXKXKXKXKXKXKXKXKXu r.z s d a k ",
"*.>.e.E.~./.).#XCXKXKXKXKXKXKXKXKXKXKXKXKXKXKXKXKXKXKXKXKXKXKXKXKXKXKXKXKXKXKXKXKXKXKXKXKXKXKXKXKXKXKXKXKXKXKXKXKXM @.v s d s s ",
"=.r.E.~././._.].yXrXKXKXKXKXKXKXKXKXKXKXKXKXKXKXKXKXKXKXKXKXKXKXKXKXKXKXKXKXKXKXKXKXKXKXKXKXKXKXKXKXKXKXKXKXKXKXKX-.z x s d s s ",
"=.e.E.~./.i._.].@XiXKXKXKXKXKXKXKXKXKXKXKXKXKXKXKXKXKXKXKXKXKXKXKXKXKXKXKXKXKXKXKXKXKXKXKXKXKXKXKXKXKXKXKXKXKXKXj c g x d s s a ",
">.r.~.~.~.u.).).p.@XyXKXKXKXKXKXKXKXKXKXKXKXKXKXKXKXKXKXKXKXKXKXKXKXKXKXKXKXKXKXKXKXKXKXKXKXKXKXKXKXKXKXKXKXKXKX&.c s s d f t t ",
";.:.u.u.e.u.u.^.'.[.mXM KXKXKXKXKXKXKXKXKXKXKXKXKXKXKXKXKXKXKXKXKXKXKXKXKXKXKXKXKXKXKXKXKXKXKXKXKXKXKXKXKXKXKXj c v a a k a 6 t ",
";.:.e.e.e.e.~.~.i.).[.'.KXKXKXKXKXKXKXKXKXKXKXKXKXKXKXKXKXKXKXKXKXKXKXKXKXKXKXKXKXKXKXKXKXKXKXKXKXKXKXKXKXKXKXN z x a k x x s d ",
"*.;.;.e.:.e.E.E.E.(.)./.M KXKXKXKXKXKXKXKXKXKXKXKXKXKXKXKXKXKXKXKXKXKXKXKXKXKXKXKXKXKXKXKXKXKXKXKXKXKXKXKXKXx x l l y k z x s s ",
"=.;.;.;.;.e.E.~.^.^./.).e.r KXKXKXKXKXKXKXKXKXKXKXKXKXKXKXKXKXKXKXKXKXKXKXKXKXKXKXKXKXKXKXKXKXKXKXKXKXKXKXr c x l 0 a l s d a a ",
";.;.;.;.;.;.>.:.u.e.i.[.e.k 4 KXKXKXKXKXKXKXKXKXKXKXKXKXKXKXKXKXKXKXKXKXKXKXKXKXKXKXKXKXKXKXKXKXKXKXKXKX4 a x x s a d d s a k a ",
"&.*.*.=.=.=.;.;.:.r.e.^.^.N l $ KXKXKXKXKXKXKXKXKXKXKXKXKXKXKXKXKXKXKXKXKXKXKXKXKXKXKXKXKXKXKXKXKXKXKXKX3 a a x s a a a 6 f t 6 ",
"&.&.*.*.*.*.=.;.;.;.e.E.^.e.N j KXKXKXKXKXKXKXKXKXKXKXKXKXKXKXKXKXKXKXKXKXKXKXKXKXKXKXKXKXKXKXKXKXKXKX$ t l s s s 0 6 t t 6 6 6 ",
"x n &.$.n x &.=.>.;.E.E.^.(.&.x 4 KXKXKXKXKXKXKXKXKXKXKXKXKXKXKXKXKXKXKXKXKXKXKXKXKXKXKXKXKXKXKXKXKX+ 3 s s d f a r 6 6 t 6 3 3 "
};
