/* XPM */
static char *_616353710254[] = {
/* columns rows colors chars-per-pixel */
"64 64 250 2 ",
"   c #010002",
".  c #00000A",
"X  c #150505",
"o  c #181411",
"O  c #380A07",
"+  c #361C15",
"@  c #2C0F11",
"#  c #3B261C",
"$  c #2E231A",
"%  c #3A2B25",
"&  c #480508",
"*  c #53150D",
"=  c #471915",
"-  c #561814",
";  c #53100D",
":  c #64150A",
">  c #75180D",
",  c #651A15",
"<  c #771A16",
"1  c #6C0C0D",
"2  c #472B1C",
"3  c #58271A",
"4  c #54301F",
"5  c #5A331F",
"6  c #68271A",
"7  c #7C2C1E",
"8  c #782719",
"9  c #6D341E",
"0  c #76321B",
"q  c #452D24",
"w  c #543322",
"e  c #5C3522",
"r  c #5A3C2A",
"t  c #4B3934",
"y  c #523029",
"u  c #6B2823",
"i  c #653A24",
"p  c #6B3D24",
"a  c #6B3E29",
"s  c #633726",
"d  c #773926",
"f  c #73272B",
"g  c #70411E",
"h  c #584337",
"j  c #6E422A",
"k  c #6B4024",
"l  c #744325",
"z  c #74452B",
"x  c #7B4A2C",
"c  c #7A462A",
"v  c #7B4D33",
"b  c #764B35",
"n  c #795339",
"m  c #6A4833",
"M  c #6B5244",
"N  c #6E5245",
"B  c #8B190D",
"V  c #871C17",
"C  c #961A14",
"Z  c #94180C",
"A  c #A91E0E",
"S  c #95250E",
"D  c #8B2B19",
"F  c #882919",
"G  c #9A2C1D",
"H  c #982817",
"J  c #88341B",
"K  c #9D3B1A",
"L  c #983419",
"P  c #882C0E",
"I  c #A2291A",
"U  c #B72B1A",
"Y  c #A6371C",
"T  c #B43718",
"R  c #A02609",
"E  c #8B2C25",
"W  c #982824",
"Q  c #883827",
"!  c #983827",
"~  c #923A34",
"^  c #A62C21",
"/  c #A33423",
"(  c #A83827",
")  c #BC3A23",
"_  c #B53A26",
"`  c #A93C34",
"'  c #B32C28",
"]  c #CB3E1B",
"[  c #C43D29",
"{  c #C83B30",
"}  c #A54318",
"|  c #B2471D",
" . c #BB5D1E",
".. c #89482C",
"X. c #994727",
"o. c #88552E",
"O. c #995228",
"+. c #854B37",
"@. c #934832",
"#. c #835435",
"$. c #8A5535",
"%. c #8D5A3B",
"&. c #8A5A3B",
"*. c #945C3B",
"=. c #985E3D",
"-. c #935736",
";. c #AB422C",
":. c #AC4B2D",
">. c #A64828",
",. c #BC452B",
"<. c #BB4B2B",
"1. c #B74828",
"2. c #A95129",
"3. c #BA572A",
"4. c #A84835",
"5. c #B44C34",
"6. c #B94935",
"7. c #A95A38",
"8. c #BD5232",
"9. c #B85838",
"0. c #9C623E",
"q. c #916035",
"w. c #B7652E",
"e. c #A3653E",
"r. c #A6693C",
"t. c #B8693B",
"y. c #BF723D",
"u. c #C84A1D",
"i. c #C44E2C",
"p. c #C74929",
"a. c #CB532C",
"s. c #CE5B2E",
"d. c #C3572A",
"f. c #D55C2A",
"g. c #C44D3A",
"h. c #C54934",
"j. c #D04E32",
"k. c #CC5C34",
"l. c #C45D3B",
"z. c #C85738",
"x. c #D35C3B",
"c. c #D65C38",
"v. c #D74928",
"b. c #C9652D",
"n. c #DB672C",
"m. c #C96739",
"M. c #D56233",
"N. c #DA6B35",
"B. c #D3623C",
"V. c #D56A3C",
"C. c #D96A38",
"Z. c #DB763B",
"A. c #D27534",
"S. c #E26D3B",
"D. c #E2773B",
"F. c #875B44",
"G. c #975641",
"H. c #B55C43",
"J. c #A55743",
"K. c #8A6447",
"L. c #946243",
"P. c #9D6342",
"I. c #98674A",
"U. c #986B52",
"Y. c #8E6C51",
"T. c #A26643",
"R. c #A56944",
"E. c #AB6A44",
"W. c #A86A48",
"Q. c #B26D44",
"!. c #B86946",
"~. c #AB714E",
"^. c #A6714F",
"/. c #BC734A",
"(. c #B6754A",
"). c #A87558",
"_. c #BB7753",
"`. c #B46C54",
"'. c #A27C61",
"]. c #C54C41",
"[. c #C85943",
"{. c #D45A43",
"}. c #CC5A52",
"|. c #CB6945",
" X c #DB6D44",
".X c #D86748",
"XX c #C4744D",
"oX c #C37A4E",
"OX c #C77447",
"+X c #DC7244",
"@X c #DA7747",
"#X c #DE6F54",
"$X c #C57954",
"%X c #D97757",
"&X c #CA6652",
"*X c #E26B46",
"=X c #E27543",
"-X c #E47C44",
";X c #E97B42",
":X c #E3744A",
">X c #E47C4C",
",X c #EA7C4D",
"<X c #EA7444",
"1X c #E57854",
"2X c #E76C55",
"3X c #DC7E63",
"4X c #C57E60",
"5X c #D7833F",
"6X c #E5843B",
"7X c #EB883B",
"8X c #EC943B",
"9X c #F0923A",
"0X c #F2A13F",
"qX c #BD8156",
"wX c #BE8662",
"eX c #D98249",
"rX c #CA845A",
"tX c #D58859",
"yX c #DB905E",
"uX c #EA8749",
"iX c #F48C49",
"pX c #ED9548",
"aX c #F39648",
"sX c #EC8354",
"dX c #E88657",
"fX c #E99658",
"gX c #F79855",
"hX c #F3885A",
"jX c #F5A84A",
"kX c #F7B34F",
"lX c #F7AC56",
"zX c #F5B653",
"xX c #EEA449",
"cX c #C48866",
"vX c #D78B64",
"bX c #DB9769",
"nX c #D79774",
"mX c #E88765",
"MX c #F38863",
"NX c #E79668",
"BX c #F39567",
"VX c #E89A73",
"CX c #F4AC68",
"ZX c #F7B491",
"AX c #F0BCAB",
"SX c #DFAB89",
"DX c #F7C9A6",
"FX c #FFFFFF",
"GX c gray97",
"HX c #CECECE",
/* pixels */
"FXFXFXFXFXFXFXFXFXFXFXFXFXFXFXFXFXFXFXFXFXFXFXFXFXFXFXFXFXFXFXFXFXFXFXFXFXFXFXFXFXFXFXFXFXFXFXFXFXFXFXFXFXFXFXFXFXFXFXFXFXFXFXFX",
"FXFXFXFXFXFXFXFXFXFXFXFXFXFXFXFXFXFXFXFXFXFXFXFXFXFXFXFXFXFXFXFXFXFXFXFXFXFXFXFXFXFXFXFXFXFXFXFXFXFXFXFXFXFXFXFXFXFXFXFXFXFXFXFX",
"FXFXFXFXFXFXFXFXFXFXFXFXFXFXFXFXFXFXFXFXFXFXFXFXFXFXFXFXFXFXFXFXFXFXFXFXFXFXFXFXFXFXFXFXFXFXFXFXFXFXFXFXFXFXFXFXFXFXFXFXFXFXFXGX",
"o FXFXFXFXFXFXFXFXFXFXFXFXFXFXFXFXFXFXFXFXFXFXFXFXFXFXFXFXFXFXFXFXFXFXFXFXFXFXFXFXFXFXFXFXFXFXFXFXFXFXFXFXFXFXFXFXFXFXFXFXFXFXGX",
"$ FXFXFXFXFXFXFXFXFXFXFXFXFXFXFXFXFXFXFXFXFXFXFXFXFXFXFXFXFXFXFXFXFXFXFXFXFXFXFXFXFXFXFXFXFXFXFXFXFXFXFXFXFXFXFXFXFXFXFXFXFXFX% ",
"% FXFXFXFXFXFXFXFXFXFXFXFXFXFXFXFXFXFXFXFXFXFXFXFXFXFXFXFXFXFXFXFXFXFXFXFXFXFXFXFXFXFXFXFXFXFXFXFXFXFXFXFXFXFXFXFXFXFXFXFXFXFXt ",
"t FXFXFXFXFXFXFXFXFXFXFXFXFXFXFXFXFXFXFXFXFXFXFXFXFXFXFXFXFXFXFXFXFXFXFXFXFXFXFXFXFXFXFXFXFXFXFXFXFXFXFXFXFXFXFXFXFXFXFXFXFXFXh ",
"t FXFXFXFXFXFXFXFXFXFXFXFXFXFXFXFXFXFXFXFXFXFXFXFXFXFXFXFXFXFXFXFXFXFXFXFXFXFXFXFXFXFXFXFXFXFXFXFXFXFXFXFXFXFXFXFXFXFXFXFXFXFXh ",
"y FXFXFXFXFXFXFXFXFXFXFXFXFXFXFXFXFXFXFXFXFXFXFXFXFXFXFXFXFXFXFXFXFXFXFXFXFXFXFXFXFXFXFXFXFXFXFXFXFXFXFXFXFXFXFXFXFXFXFXFXFXFXM ",
"h FXFXFXFXFXFXFXFXFXFXFXFXFXFXFXFXFXFXFXFXFXFXFXFXFXFXFXFXFXFXFXFXFXFXFXFXFXFXFXFXFXFXFXFXFXFXFXFXFXFXFXFXFXFXFXFXFXFXFXFXFXGXM ",
"h FXFXFXFXFXFXFXFXFXFXFXFXFXFXFXFXFXFXFXFXFXFXFXFXFXFXFXFXFXFXFXFXFXFXFXFXFXFXFXFXFXFXFXFXFXFXFXFXFXFXFXFXFXFXFXFXFXFXFXFXFXFXM ",
"M FXFXFXFXFXFXFXFXFXFXFXFXFXFXFXFXFXFXFXFXFXFXFXFXFXFXFXFXFXFXFXFXFXFXFXFXFXFXFXFXFXFXFXFXFXFXFXFXFXFXFXFXFXFXFXFXFXFXFXFXFXFXM ",
"N FXFXFXFXFXFXFXFXFXFXFXFXFXFXFXFXFXFXFXFXFXFXFXFXFXFXFXFXFXFXFXFXFXFXFXFXFXFXFXFXFXFXFXFXFXFXFXFXFXFXFXFXFXFXFXFXFXFXFXFXFXFXN ",
"N FXFXFXFXFXFXFXFXFXFXFXFXFXFXFXFXFXFXFXFXFXFXFXFXFXFXFXFXFXFXFXFXFXFXFXFXFXFXFXFXFXFXFXFXFXFXFXFXFXFXFXFXFXFXFXFXFXFXFXFXFXFXY.",
"N FXFXFXFXFXFXFXFXFXFXFXFXFXFXFXFXFXFXFXFXFXFXFXFXFXFXFXFXFXFXFXFXFXFXFXFXFXFXFXFXFXFXFXFXFXFXFXFXFXFXFXFXFXFXFXFXFXFXFXFXFXFXN ",
"n @ FXFXFXFXFXFXFXFXFXFXFXFXFXFXFXFXFXFXFXFXFXFXFXFXFXFXFXFXFXFXFXFXFXFXFXFXFXFXFXFXFXFXFXFXFXFXFXFXFXFXFXFXFXFXFXFXFXFXFXFXFXY.",
"K.$ FXFXFXFXFXFXFXFXFXFXFXFXFXFXFXFXFXFXFXFXFXFXFXFXFXFXFXFXFXFXFXFXFXFXFXFXFXFXFXFXFXFXFXFXFXFXFXFXFXFXFXFXFXFXFXFXFXFXFXFX+ Y.",
"U.# FXFXFXFXFXFXFXFXFXFXFXFXFXFXFXFXFXFXFXFXFXFXFXFXFXFXFXFXFXFXFXFXFXFXFXFXFXFXFXFXFXFXFXFXFXFXFXFXFXFXFXFXFXFXFXFXFXFXFXFX$ '.",
"Y.# FXFXFXFXFXFXFXFXFXFXFXFXFXFXFXFXFXFXFXFXFXFXFXFXFXFXFXd c 9 d x p 6 3 3 3 3 = + FXFXFXFXFXFXFXFXFXFXFXFXFXFXFXFXFXFXFXFX# '.",
"U.2 FXFXFXFXFXFXFXFXFXFXFXFXFXFXFXFXFXFXFXFX6 6 7 ..Q FXQ t.O.: Q @.J J 7 ..@.c 0 0 6 3 3 2 FXFXFXFXFXFXFXFXFXFXFXFXFXFXFXFX# '.",
"L.q FXFXFXFXFXFXFXFXFXFXFXFXFXFXFXFXFXFX%.~.!.>.J 9.2.>.:.w.L E |.>.D 5.9.2.X.Q J Q Q X.7.O.O.9 FXFXFXFXFXFXFXFXFXFXFXFXFXFX# U.",
"L.r FXFXFXFXFXFXFXFXFXFXFXFXFXFXFXFX0.tXCXfXeXA.eXZ.A.A.@X3.K [.|.|.[.[.m.( L 2.3.t.2.5.7.X.w.y...FXFXFXFXFXFXFXFXFXFXFXFXFXq ).",
"L.h FXFXFXFXFXFXFXFXFXFXFXFXFX# o.t.m.2.K 3.w.2.Y b.gX<X.X#XuX+Xb.eXvX:.H 1.m.m. X@Xm.6.;.3.m.eXOX0 FXFXFXFXFXFXFXFXFXFXFXFXh wX",
"L.r FXFXFXFXFXFXFXFXFXFXFXFXu >.K 1.5./ V G 8..X|.,.1.j.G D hXiX| b.CX@X|.@X3.K 9.|.|.B.8.l.M.k.%XH.d FXFXFXFXFXFXFXFXFXFXFXr qX",
"&.k FXFXFXFXFXFXFXFXFXFXFX@.XX:.5.;.! ! ;.l.C.D.<X{.8 & ; < 1Xz.X * &XS.C.,XuX X|.d.|.+X=X+XB.k.x.@X!.R.FXFXFXFXFXFXFXFXFXFXw qX",
"R.F.FXFXFXFXFXFXFXFXFXFX- 5.z.i.|.;.D P H x.N.n.x.6.J & @ E v.;     ; c. XC.eXgXgXiXuXs.C.,X1X1XmXdX>X9.X.FXFXFXFXFXFXFXFXFX# ^.",
"rX_.FXFXFXFXFXFXFXFX= u 6 ( .X:X.X5.;.! F F K S W < 7 ..- ,.]       + 3XT T T | +XgXiXD.f.j.1X1X1X>X=XiX7XV.FXFXFXFXFXFXFXFX+ U.",
"$XoXFXFXFXFXFXFXFX3 Q ~ ! &X%X1XsX|.<.` 4.F < E E < < @.4.<Xx.      f AXM.1 W / p.:XlXaXn.] a.=X=X>XgXlXjX7X5X0.FXFXFXFXFXFX$ Y.",
"4XXXFXFXFXFXFXFX= E ,.{.8.H.3X|.BXBX8.Y 8.,.Y 4.~ < & & F ZXnX      X VXdX; , E ) B.fXaXuXS.j.#X1XM.C.uXaXaXlXfXw.FXFXFXFXFX$ L.",
"_.$X~.FXFXFXFXs @.6.,.p.<.:.m.b.N.m.dX@Xm.8.( / F , @ @ 4.ZXXX  .     | u.E - F ].c.n.D.sX,XsXmXmX{.a.Z.pXjXzXxX7Xw.FXFXFXFX% K.",
"rXfXtXFXFXFXQ 8.p.c.x.a.T :.mXV.| } Z.uX3.| ;.5./ < = 3 X.T O         `.{.W 1 , C k.mXf.u.f.S.uXBXBXNXCXkXkXkXxX8X6X7.FXFXFXs %.",
"$XtXdXu FXu W _ p.S.Z.b.d.|.!.9.3.3.Z.gXb.Y 6._ ^ 5.d d > H O         AXZX^ 7 ..:.Y 1.i.,.] ) a.hXCXCXCXzXzXzXzXpX7X;X7.3 3 I.~.",
"$XoXtXJ.~ 4.( l.N.D.8XaX9Xb.| k.C.A.D.-X X( ' I ^ ~ u ; : ` @         SXDX,.< ! 5.! S _ g.' _ i.N.fXCXzXzXkXjXkXaX .Y 2...d cX$X",
"/.m.NXNXW.XX1X:XaXaXxXjX8X8XpXaXpX-X X3.<.m.T ( W , O = 6 C @ .     . nXfXU D Y T h.h.g..X#X%XuXuXfXiX9XaXjX8XA.>X%X..6 d W.bX$X",
"rXbXVXyXFXFX9.V.9X0X8XjXjXaX8X6X-X+XS. Xm. Xx.' ` ~ - 3 , g.` . .   . SXS.C V G ( U [ %XBXMX-XM.n.uXiXpX9X9X7Xb.<.J.FXFXFXP.vXvX",
"qXqX$XrXFXFXFXE a.D.9X0XaX7XN.d.s.k.B.1.i. X_ I V 1 7 u & #X%X      o DXsXZ : 8 ( Y H j.,X:Xc.n.Z.D.D.D.6XiXD.<.FXFXFXFXFXF.XXH.",
"^.R.Q.qXFXFXFXFXE S.iX7XpXD.=X+XB.x..XB.i.1.:.;.H H %XH.: H.3X      q DX=X:.G.E W V ^ U p.#X:XS.hX;XD.uX;Xn.P FXFXFXFXFXFXU.&X_.",
").~.r.qXFXFXFXFXFXD ,.,.M.gXpXeXm.1.k.B.k.L / g._ U ) [.-.L [   .   L.ZXS * ~ ` h.h._ ^ W g.,XsXsX=X<XiX;X1.FXFXFXFXFXFXFXF.-.T.",
"~.r./.tX^.FXFXFXFXFXFXD d.gXlX@Xd.,.i..X>XV.z.x.) ].].C 7 4. X-     U.2X> & : / .XMXsX>X[.v.,XsX;X;XS.7X@X0 FXFXFXFXFXFXFXn v #.",
"~./.vXbXbXFXFXFXFXFXFXFX! m.;XC.*X.Xx.8.<.k.1.Y g.[.}.6.^ H BXcX    ).i.V W ! ^ [ *X=X;X:Xc.f.M.=X:XS.| 0 FXFXFXFXFXFXFXFXn c N ",
"~.tXrXyXCXFXFXFXFXFXFXFXFX9 J Y +X*X3.3.D ^ W W 5.S T 2X2X' x.@X- y }.C ^ 1X,Xs.[ { p.c.c.*XS.c.x.j.p.8 FXFXFXFXFXFXFXFXFXR.$.v ",
"~.XX%XtXNXFXFXFXFXFXFXFXFXFXFX, F L K m.9.! 5.|.[.b.dXa.U H z.MX3X{.2X].].j.<XgX Xp.j.2Xc.N.<X*Xi.<.F FXFXFXFXFXFXFXFXFXFXoXrXR.",
"_.XXOX/.yXF.FXFXFXFXFXFXFXFXFXFXf J F 2.y.m.9.m.3.3.@Xg.A k.#X[ hX<X{ j.i.B I V.d. X#Xp.a.c.M.<.J 3 FXFXFXFXFXFXFXFXFXFXFXy.r.`.",
"_.!.t.oXnXnXFXFXFXFXFXFXFXFXFXFXFX4 ....O.O.X.2.>.L } [.[.k.S A MX2XA .X%X( Y i.p.p.z.h.p.[.5.F * FXFXFXFXFXFXFXFXFXFXFXv r...+.",
"`.t.OXbXVXcXFXFXFXFXFXFXFXFXFXFXFXFXFXFX9 9 6 6 7 Q >.b.3./ ;.|.1X{.[ sX;Xf.a.B..X) / 5.` ~ u = FXFXFXFXFXFXFXFXFXFXFXFXF...z b ",
"I.e.!.tXoXm.v FXFXFXFXFXFXFXFXFXFXFXFXFXFXFXFXFXFXFX7 >.2.m.&X3.P W ;.<.k.k.6.g.5.FXFXFXFXFXFXFXFXFXFXFXFXFXFXFXFXFXFXFX$.c k b ",
"I.=.r._.t.t.rXFXFXFXFXFXFXFXFXFXFXFXFXFXFXFXFXFXFXFXFXFXFX9 d 7 0 7 8 L 9.H.FXFXFXFXFXFXFXFXFXFXFXFXFXFXFXFXFXFXFXFXFXn &.L.v b ",
"P.-.P.r.r.t.bXr FXFXFXFXFXFXFXFXFXFXFXFXFXFXFXFXFXFXFXFXFXFXFXFXFXFXFXFXFXFXFXFXFXFXFXFXFXFXFXFXFXFXFXFXFXFXFXFXFXFXFXv l $.I.F.",
"%.o.0.R.e.qXtXI.FXFXFXFXFXFXFXFXFXFXFXFXFXFXFXFXFXFXFXFXFXFXFXFXFXFXFXFXFXFXFXFXFXFXFXFXFXFXFXFXFXFXFXFXFXFXFXFXFXFXw x l g x K.",
"L.&.0.R.E.qX(.~.FXFXFXFXFXFXFXFXFXFXFXFXFXFXFXFXFXFXFXFXFXFXFXFXFXFXFXFXFXFXFXFXFXFXFXFXFXFXFXFXFXFXFXFXFXFXFXFXFXFXl x z l p j ",
"L.*.I.R.~._.(._.v FXFXFXFXFXFXFXFXFXFXFXFXFXFXFXFXFXFXFXFXFXFXFXFXFXFXFXFXFXFXFXFXFXFXFXFXFXFXFXFXFXFXFXFXFXFXFXFXFX#.x z j p j ",
"&.q.P.P.W.Q.Q.(.rXFXFXFXFXFXFXFXFXFXFXFXFXFXFXFXFXFXFXFXFXFXFXFXFXFXFXFXFXFXFXFXFXFXFXFXFXFXFXFXFXFXFXFXFXFXFXFXFXr %.l a j i j ",
"&.*.0.0.T.E.Q.OXNXFXFXFXFXFXFXFXFXFXFXFXFXFXFXFXFXFXFXFXFXFXFXFXFXFXFXFXFXFXFXFXFXFXFXFXFXFXFXFXFXFXFXFXFXFXFXFXFXn o.c p p a p ",
"&.0.P.T.R.E.Q.oXrXwXFXFXFXFXFXFXFXFXFXFXFXFXFXFXFXFXFXFXFXFXFXFXFXFXFXFXFXFXFXFXFXFXFXFXFXFXFXFXFXFXFXFXFXFXFXFXFX#.l z p a a a ",
"%.*.P.T.E.E.!.(.qXyXFXFXFXFXFXFXFXFXFXFXFXFXFXFXFXFXFXFXFXFXFXFXFXFXFXFXFXFXFXFXFXFXFXFXFXFXFXFXFXFXFXFXFXFXFXFXh ..l z p p p i ",
"*.0.T.T.T.e.r.!.t.oX_.FXFXFXFXFXFXFXFXFXFXFXFXFXFXFXFXFXFXFXFXFXFXFXFXFXFXFXFXFXFXFXFXFXFXFXFXFXFXFXFXFXFXFXFXGXn x p p p s 5 s ",
"=.=.0.e.0.e.e.R.E.(.rXn FXFXFXFXFXFXFXFXFXFXFXFXFXFXFXFXFXFXFXFXFXFXFXFXFXFXFXFXFXFXFXFXFXFXFXFXFXFXFXFXFXFXFXk x l i p j i 4 e ",
"%.=.0.e.0.0.T.T.R.Q.(.~.FXFXFXFXFXFXFXFXFXFXFXFXFXFXFXFXFXFXFXFXFXFXFXFXFXFXFXFXFXFXFXFXFXFXFXFXFXFXFXFXFXFXFXv l l i j z z p p ",
"%.*.*.0.=.0.P.P.R.E.Q.~.v FXFXFXFXFXFXFXFXFXFXFXFXFXFXFXFXFXFXFXFXFXFXFXFXFXFXFXFXFXFXFXFXFXFXFXFXFXFXFXFXFXz z l a i j l z i a ",
"*.*.*.*.*.0.0.T.T.R.E.Q.P.w FXFXFXFXFXFXFXFXFXFXFXFXFXFXFXFXFXFXFXFXFXFXFXFXFXFXFXFXFXFXFXFXFXFXFXFXFXFXFXq b z k i p p p a i i ",
"%.*.*.*.-.*.*.*.P.e.r.(.0.j # FXFXFXFXFXFXFXFXFXFXFXFXFXFXFXFXFXFXFXFXFXFXFXFXFXFXFXFXFXFXFXFXFXFXFXFXFX2 e z z p s k p i i j i ",
"#.$.$.-.%.%.*.=.=.q.0.R.R.v k # FXFXFXFXFXFXFXFXFXFXFXFXFXFXFXFXFXFXFXFXFXFXFXFXFXFXFXFXFXFXFXFXFXFXFXGX2 i k z a i i p 5 e e 4 ",
"v +.$.$.$.$.%.=.=.-.0.P.R.P.v r FXFXFXFXFXFXFXFXFXFXFXFXFXFXFXFXFXFXFXFXFXFXFXFXFXFXFXFXFXFXFXFXFXFXFX# e k 9 p a 5 4 e s 5 4 4 ",
"z x #.#.v z #.%.-.*.P.P.R.R.#.v 2 HXFXGXFXFXFXFXFXFXFXFXFXFXFXFXFXFXFXFXFXFXFXFXFXFXFXFXFXFXFXFXFXFX+ 2 a k p i a 5 4 4 5 4 2 4 "
};
