/* XPM */
static char *_616353029081[] = {
/* columns rows colors chars-per-pixel */
"64 64 256 2 ",
"   c #020103",
".  c #00030B",
"X  c #070708",
"o  c #160705",
"O  c #15130F",
"+  c #070D12",
"@  c #100D13",
"#  c #0E1215",
"$  c #0D1719",
"%  c #051116",
"&  c #131315",
"*  c #1A1313",
"=  c #131519",
"-  c #1D1B1A",
";  c #1A1918",
":  c #240A09",
">  c #3A0400",
",  c #29140B",
"<  c #38170B",
"1  c #241513",
"2  c #2C1C16",
"3  c #251C1B",
"4  c #2C1D1B",
"5  c #261914",
"6  c #331C15",
"7  c #321E1B",
"8  c #3A1B15",
"9  c #2D0C16",
"0  c #2D211C",
"q  c #282018",
"w  c #3A2216",
"e  c #34221D",
"r  c #3B241D",
"t  c #3A271C",
"y  c #35200F",
"u  c #1A1E25",
"i  c #2C1C21",
"p  c #221D23",
"a  c #361E23",
"s  c #1D2226",
"d  c #1D232A",
"f  c #17212D",
"g  c #192333",
"h  c #222225",
"j  c #2E2424",
"k  c #22232A",
"l  c #2C2928",
"z  c #352422",
"x  c #3B2522",
"c  c #352823",
"v  c #3B2923",
"b  c #352B29",
"n  c #3B2B2A",
"m  c #352429",
"M  c #333034",
"N  c #460604",
"B  c #571909",
"V  c #461C17",
"C  c #551B17",
"Z  c #4E100D",
"A  c #65170A",
"S  c #681A16",
"D  c #76130D",
"F  c #43241D",
"G  c #4A251D",
"H  c #43291E",
"J  c #4A2819",
"K  c #59271A",
"L  c #522A15",
"P  c #67291A",
"I  c #762919",
"U  c #66341C",
"Y  c #793417",
"T  c #6F240A",
"R  c #422522",
"E  c #442B23",
"W  c #4C2C23",
"Q  c #4B2E2A",
"!  c #462928",
"~  c #532B24",
"^  c #542D2A",
"/  c #5A2B25",
"(  c #4C3125",
")  c #4D342A",
"_  c #463228",
"`  c #533225",
"'  c #5B3325",
"]  c #54342B",
"[  c #59352C",
"{  c #553A2E",
"}  c #5B392C",
"|  c #5A3A23",
" . c #4B3531",
".. c #593732",
"X. c #532931",
"o. c #672D24",
"O. c #772A26",
"+. c #673828",
"@. c #753928",
"#. c #6A3C32",
"$. c #763A36",
"%. c #752130",
"&. c #661E2D",
"*. c #79421C",
"=. c #5A4535",
"-. c #69422C",
";. c #794628",
":. c #6A4634",
">. c #784934",
",. c #7A5336",
"<. c #745331",
"1. c #7B5744",
"2. c #705149",
"3. c #715E56",
"4. c #881808",
"5. c #951C13",
"6. c #97280B",
"7. c #892818",
"8. c #962818",
"9. c #88361A",
"0. c #99361C",
"q. c #9D360D",
"w. c #A52A18",
"e. c #A63718",
"r. c #B53A18",
"t. c #A22D0B",
"y. c #8F1E21",
"u. c #883827",
"i. c #993927",
"p. c #8A3A34",
"a. c #922E2B",
"s. c #A73725",
"d. c #B53C25",
"f. c #AB342F",
"g. c #AB451A",
"h. c #B8451B",
"j. c #A2530E",
"k. c #85482A",
"l. c #97462B",
"z. c #864936",
"x. c #974736",
"c. c #875737",
"v. c #965938",
"b. c #8A552C",
"n. c #A84529",
"m. c #B74928",
"M. c #BD522B",
"N. c #B65528",
"B. c #A94835",
"V. c #BB4935",
"C. c #A55939",
"Z. c #BA5936",
"A. c #AA552C",
"S. c #9A633D",
"D. c #8E643E",
"F. c #A7633B",
"G. c #B9653B",
"H. c #B6733C",
"J. c #BD6317",
"K. c #C5541D",
"L. c #C54A29",
"P. c #C3532C",
"I. c #C8582A",
"U. c #C54B34",
"Y. c #C45333",
"T. c #CB5D34",
"R. c #CD5C3B",
"E. c #C65837",
"W. c #D45B37",
"Q. c #D35727",
"!. c #C5622D",
"~. c #D4662C",
"^. c #CA6539",
"/. c #D3633D",
"(. c #D76837",
"). c #D87639",
"_. c #CC7434",
"`. c #E3673A",
"'. c #E47A3A",
"]. c #E4572C",
"[. c #8A5B46",
"{. c #8D584D",
"}. c #B05844",
"|. c #8A6248",
" X c #946343",
".X c #996646",
"XX c #8A6856",
"oX c #966954",
"OX c #9D7456",
"+X c #A96946",
"@X c #B66B48",
"#X c #AC7249",
"$X c #B7744A",
"%X c #AC7758",
"&X c #B97956",
"*X c #AE6A54",
"=X c #997865",
"-X c #8B7065",
";X c #B27D66",
":X c #CB5843",
">X c #D85846",
",X c #CA4E47",
"<X c #C96846",
"1X c #DB6B44",
"2X c #D66946",
"3X c #C4774A",
"4X c #DA7546",
"5X c #D96954",
"6X c #C87855",
"7X c #DB7854",
"8X c #C16E50",
"9X c #E46B47",
"0X c #E3744B",
"qX c #E57948",
"wX c #E76A53",
"eX c #E87855",
"rX c #F47854",
"tX c #F07869",
"yX c #DF6C59",
"uX c #E7853A",
"iX c #F4923D",
"pX c #B7856A",
"aX c #AC8065",
"sX c #AA8566",
"dX c #C98459",
"fX c #D58858",
"gX c #D6874F",
"hX c #E98648",
"jX c #F58849",
"kX c #E89648",
"lX c #F59546",
"zX c #E88756",
"xX c #F58858",
"cX c #EB9259",
"vX c #FB9856",
"bX c #F5A744",
"nX c #FBA656",
"mX c #F5B657",
"MX c #F2B14F",
"NX c #C88967",
"BX c #D58B65",
"VX c #D89574",
"CX c #D2906F",
"ZX c #E98666",
"AX c #F88667",
"SX c #E59767",
"DX c #FA9667",
"FX c #E89976",
"GX c #F29277",
"HX c #FAA867",
"JX c #F5AD71",
"KX c #FFAA86",
"LX c #F5B591",
"PX c #D9A28B",
"IX c #FAD1B1",
"UX c #FFC499",
/* pixels */
"l h k k f d s h s s d s s h s h s s s s s h s d k d k k h h s h d k k k h h s h d h k k h k d k k h k k d k d d k d d s d d d M ",
"- @ = u = = = = $ & & & & = = = = = & & = = = = = & = = & O & & $ = $ $ $ & & & $ $ $ $ $ $ $ $ & & & & & $ $ # = = = # = = + $ ",
"q O @ & & & & O & & * & * * * * * * * * * * * * * * * * * * * O & O & O O O & O & O O & O O & O O ; O O & * & & * * O O ; O O j ",
" .q - - ; - ; 3 4 3 3 i i i 4 0 i i i i j 4 i i 4 4 4 4 0 0 e e e c e c v v v R E R x R x x R E t t v n c c t t e q 2 2 e 5 b 3.",
"=.q ; 3 3 q q 0 4 4 i 7 i a a a x a a z a a a 7 7 7 x r x x v E ! ! ( ( ` ` ` W ^ ^ ^ ~ ~ ~ ^ [ ] ` ` ` ( ! E R t r w e w ,  .sX",
"=.0 1 4 3 3 1 5 4 4 4 4 4 7 7 4 7 a z a z 7 7 4 8 7 7 x e F t t G G G J ~ ~ ~ ~ ~ ~ J ~ ~ W ~ W ^ ' ' ` ^ G G J 8 t t w w , M -X",
"3.e 1 4 3 3 1 5 2 2 6 4 4 7 7 7 7 r x e 7 a 7 7 8 7 7 8 r r x R H H J ( ( ( W ` ( ( ( W W W ( ( ` ` ( ( W H H H w r r w w 6 _ 3.",
"3.0 * 3 3 4 4 e 2 2 2 4 7 7 7 e e a 7 x e e 7 7 7 7 8 a r R R E t E H _ _ _ ( ( ( ( ( ) ( ( ( ( ( ) ) ) ( _ v t E t F r r 6  .-X",
"<.w 1 j q 0 7 a 4 7 4 7 4 7 7 e z e x r r r r w z v x a ! E H H ) E Q W ` ` ` ` J ~ W ` ] ] ( ` [ ] ] ] ( W W H G H R v r < W XX",
"1.v 9 j 4 q 4 7 4 7 7 4 7 7 7 7 t t r x r e r t c R x v ! _ H E ) ) W ( ^ ] ' ^ ` ( ] ] ] ] ] ) [ [ ..] ] W W H G E R E r 8 ` -X",
"3.` 1 a q q 6 7 7 7 e 7 7 e e e e r r v r r r F t H v v E _ _ _ Q ] ] ] [ [ [ [ ( ( ( ] ] ] } ] ] ..} ] ] ( ( ( H W E _ H 8 ' XX",
"XX{ 1 i 0 q 4 7 z e 4 e e 7 e 7 e r x r r r t R t H x c n  .) ) ] ) ) ..{ { ] { ( ) ) { ] } ] [ [ [ ] [ { { ] ( ( W _ E R w [ -X",
"oX{ : 4 2 q 2 4 4 e 7 e 7 7 7 e e r x c x r t F J t H t v Q W J Q ( ( ` ` { { ) =.` ..} } ] ' ` [ [ ......{ ] ) ( ( E _ H F | =X",
"oX} : i q 3 2 3 4 4 7 7 x 7 x 7 e e r z x H v R H t E t F ~ / K ' L ` / ` | [ ` ` ' [ ^ [ [ } ` [ ....} { { ] ] ( ( E H t w } =X",
"oX..: i q 2 2 3 7 7 e e e e a e x t t t R H v r E R v v R +.@.@.@.@.o.+.+.@.#.o.o.o.+.#.[ } ] ] } ..} } } { { ` ( J H E t w } =X",
"|...9 i 0 2 e e 4 0 7 e x x x x z e e r R t R 8 v x v R ~ #.x.x.x.p.u.u.p.p.p.$.>.$.$.#.#.+.} ` } } ....{ { ` ( ` ( ( H H w | =X",
"*X:.o i j 0 0 0 c z R F F r t c t r x R R V V [ ! V #.$.S D s.U.V.V.d.B.B.i.O.x.k.u.l.+Xx.' W _ ) } { { ..! ` ] ) W J E _ 6 [ %X",
";X1.1 3 4 2 e 0 3 t v R V x z j c t r G ~ o.o.@.K O.{.x.D 7.E.R.7XeX7XeX<X0.9.l.A.G.<X<Xl.9.@.+.] ] ] { ..] ^ W W W W R n 6 +.pX",
"&X1.5 3 2 5 0 j e t v z z n v z ! ! ^ o.U @.l.i.p.f.l.0.0.2XrX:X2XxXqX2XE.E.^.Z.E.4XqX~.I.G._.A.@./ ] .. .Q ^ / Q W W G x 2 :.pX",
"%X[.5 1 0 2 0 e e e e z n n v x X.X.K P Y l.n.i.e.:XE.6.N.vX1X6.P.2XL.m.I.(.eX~.M.E.I.I.`.jXjX).p.P [ ..) ..X.^ Q W W E ! 2 -.;X",
"#XoXt 5 4 6 e e 6 q e z e 6 V V Z O.x.@X7XZX7XG.g.^.2Xh.~.4Xe.s.1XE.m.W.wXT.P.M.m.Z.m.I.qXhX'.'.B.I o.' Q  .^ o.) W G W E 7 +.;X",
"#XsX( o 5 e r 4 r e z z 6 Z C @.A.7XSXJXJXHXkX).hXhXhX4XqX/.g.<XeX7X2X2X2XY.n.Y.<X2XR.E.^.I.'.vX7XB.P ' Q ] [ [ ! W W E n 6 :.pX",
"$XpX{ o 7 8 x e 8 x a 7 V K x.}.).4X2XN.g.N.!.!.g.(.xXxX1XeXxXhX4XcXDXE.q.M.:X7X4XeX2XE.N.P.4XjXeXN.I K ~ W ` | W ~ W E n w :.pX",
"H.sX) : e 7 x v 7 7 x x ~ @.B.E.g.m.m.0.4.0.:X2XR.L.h.W.6.t.xXjXj.).JXcX^.qXY.g.~.(.1X^.P.^.(.I.eX2X}.{.{.2.,.1.] W W ! _ c :.pX",
"v.%X-.o q l t a ! z 7 G P :X7XN.A.n.i.i.B.T.~.uXwXZ.T N Z D tX^.: C tXzX_.zXzX'.(.P.!.4XqX9X/.T.<X4X7X7XA.Y o.#.2.+.K L ( J c.pX",
"#XVXv.o 5 y w ! 8 R W K I B.:XV.:Xn.8.7.8.E.eX(.>XV.i.N N 8.,XN o o S W.].4X4XvXDXDXxX).~.rXrXeXZXzX/.<X^.l.I B o.>.,.:.( < ;.dX",
"BXKX&X| =.( F Q R / o.I T B.<X1X5XV.s.i.7.7.0.6.5.D a.#.B m.L.:   . V AXL.t.g.K.0XxXhX).~.K.`.AXqXzXhXhXcX4XN.A.v.b.@.^ a 6 ,.NX",
"BXSXF.+.2.=.J W o.@.x.f.i.@XeXtXeX5Xm.B.f.7.4.0.7.D %.{.x.wX,X    @ X.IX/.D 8.8.h.hXvXvX~.K.L.eX4XqXjXnXnXiXlXvXhXZ.T 8 a x XX&X",
"6X6X@X> e ) V V T u.V.:XE.@X7X4XDXxXN.q.n.A.i.B.f.%.N > u.KXPX    X : LXZXD D 7.h.(.hXvXjX`.W.2XeX(.(.uXlXlXnXnXlX_.9.C R X.XX*X",
"&X6XdXL 9 X.#.$.l.m.Y.L.r.g.<X!.(.4XhX4X_.Z.d.s.8.C N > B.KX;X.       }.U.y.S o.U./.4X).rXrXrXAXtX2XG.).kXnXHXMXiX_.n.P C X.{..X",
"BXgXSX+.9 &.p.,XU.R.T.m.h.m.7X3Xg.g.).jXI.g.n.f.s.D Z ' l.d.N . X X X CX>Xy.S P 8.E.eX(.Q.Q.(.eXGXDXcXHXmXMXMXbXlX'.^.l.o.o.[.b.",
"3XhXcX+.Z &.a.d.L.`.0X~.W.T.<XF.N.N.gXkX!.e.V.f.i.}.@.| T 5.N     .   IXKXa.y.u.m.e.m.m.L.r.h.I.zXHXJXmXmXmXmXMXkXuXhXZ.@.o. X&X",
"7X3XdXF.p.f.s.Y.`.).kXlXkX~.h.P._.~.qXqXR.L.w.s.f.p.K B S f.Z . o . X IXUXn.5.u.V.w.5.s.V.s.n.Y.(.vXJXmXmXbXbXMXlXJ.q.}.x.u.NX&X",
"G.$XSXFX+X6XZXeXlXlXlXbXiXhXlXvXvX'.).I.L.U.d.s.y.D < B S y.N . @ . X PXSX0.8.s.e.V.U.:X5XwXeXeXqXcXkXkXiXiXiXuX'.gXv.u.x.}.CXdX",
"dXgXFXfXT B Z.5XiXlXbXbXbXiXiXuXqX4X).T.R.5X,Xs.}.%.C B S ,Xx.. . .   IXeX4.4.f.r.d.V.wXDXxXqX~.~.uXkXkXiXiX'.T.V.}.@.K C *XCXfX",
"NXdXgXdXU < C u.J.'.iXbXiXuX_.J.P.T.^.L.Y.2XV.5.D D 7.o.N yXGX  . X o IXtX6.D D d.5.t.R.rX0XI.~.'.'.).).iXjX0XZ.I Z < 8 < oX6XG.",
"sX+XF.NX1.y V C e.1XvXjXuXqX)._.2X/./.R.P.V.m.V.8.w.5X{.A :XPX  .   =.IX6XB.x.u.w.5.w.f.L.1X0X'.jXqXuXuX'.~.e.S C V t w ^ ;X*X@X",
"OX.X#XNX|.y z v S i.V.m.(.xXjXhXR.M.T.2XE.t.e.U.m.w.V.8Xx.8.n.o   X =XUX0.A p.x.V.U.f.w.8.Y.eXrXhX'.uXjXqXM.D C Z ! b 5 ' OXv.+X",
"#XS.$XdXpX~ 7 m G C D 0.T.vXDXuXU.m.M.1X9X^.W.W.d.,X,X5.7.m.7XC     sXtXD N D u.9XrXAXeXW.Y.0XxXqX(.'.qXjX^.7.C R a t , ] |.,.b.",
"#XdXgXSXLX@.9 M  .Q O.l.N._.hX~.wX1XT.P.M.T.P.w.U.,X,XV.8.6.DXVXX   tXW.4.y.f.i.L.(.wXrX9XW.(.~.0XrX`.Q.K.h.u.#.` w 2 : #.{.>.<.",
"#XdXdXBXSX$XB  .} < 1.[.P 9.9.0.qX0XP.U.w.w.s.8.M.6.r.wXwXr.R.ZXA y.tXy.w.wXeX~.U.d.L.].`.`.W.W.].Q.m.m.l.0.9.9.Y C a 9 v.$Xv.<.",
"$XdXfXfXHX6XU  .F #.oXoXoXv.A D 6.0.n.7XE.e.A.5XT.W.eX>Xt.5.>XGXFX5XtX,XW.W.rXxX/.L.W.>X`.9XwX9XU.V.B.i.u.u.u.u.I C R / &X7X$X+X",
"&X8X<X3XSXFXc.{ |.XX=.< :.[.S o.u.9.9.^.4X7X2X4XR.I.9XU.w.>XwXU.GXAX,X>XU.4.e./.W.2X9XQ.L.2X>XM.i.a.I K B K o.@.O./ V / &X3X$X*X",
"&X@X@X6XJXUXNX=.G 8 w , W 3.[.$.Y }.Z.<X^.!.E.<XZ.g.P./.`.U.w.w.GXtXr.wXtXe.t.L.L.Q.W.U.M.:XZ.i.I P K L J J / / K J V >.&XF.x.k.",
"+X@X8XBXSXSXdX, a 1 v z 2 ] 1.{. Xz.Y l.G.Z.0.a.i.n.M.1X~.r.r.9XDX1XL.rXrXW.U.2X>XL.m.V.}.B.a.7.x.x.k.U L G ~ ~ ( ( J |..Xk.;.>.",
"C.+X@XBX3X7XdXV - l b z e 9 < F 1.K N A @.u.T S S 7.n.<XY.1XAX:Xh.h.L.`.W.2XP.:X:Xw.8.i.p.I I @.C.C.C.;.L V ~ X.) J =.D.c.;.;.>.",
".X.X+X$XG.H.SX,.X b z a E v r x 9 8 R G G G V V C K T 9.i.B.B.x.0.B.d.e.E.6Xs.7.u.O.o.K C K ~ o.k.b.c.k.o.J ....) ' >..Xc. X,.:.",
"D.v.v.H.G.H.JXsX2 n v x v z M l l M b m 7 e q e m 4 V C B K / o.O.7.y.p.z.z.p.O.^ G G E ( Q W X.L P U o.o.&.......^ z.b.*..X{.{.",
"D.,.S.S.F.dXNXBX| 5 b 0 E 8 n l n v v b c c v c t c 0 z t z e e 7 e x R R F F H t H E R H E _ ( W W ! W ] ....[ ^ o.<.b.*.U b.[.",
" Xc..X+X+X&XdXdX:., b j v v t l 0 e e c c c c b c t t c z z z e x x x e 8 r r E H R t r r r e r V R V V G G W G ^ :.D.;.;.-.@.,.",
"D.c..X+X@X$X#XdXaXy 2 l z v e z 0 c z c c c c c z z z z x e e z x x z t e x v v r x e 8 8 8 8 6 e 8 6 8 8 w E H G ,. X;.@.+.U ;.",
"[.D.S..X#X+XH.6XJX+., b i x c z c z z c c t 0 t z z z t z e z e j z z z t c e t r r t t e e e e v x 7 e 6 y H w Z |..X;.U ;.+.<.",
"c.v.v.v.+X+XH.$XJX#X6 m M v n x z z m z m z n c r z t z z e t z e j e c b t 0 t z z r t e e e r 0 r t t e 8 w : U  XD.;.;.>.+.@.",
"c.c.b.c.S.F.#X6XfXCX' : n v v v v b v v v v z z z x z x z x z z z z z z e c e l c r z z e 7 e z 6 0 w e e t w 2 ,.D.b.*.>.>.:.U ",
"c.c.b.c.v.F.F.$X).VXXX, a z z n m v n z z z a 7 z e e e e e e e a a e z 0 0 0 c z c z z j z z z t x c e t r 6 _ S.b.*.;.z.>.-.@.",
"[.,.z.v.S.v.@X$X_.dXVXW 1 c j a z a a z m z x m e e 7 0 7 4 7 7 7 7 a z e e 0 j z z z c z z c v r 7 r 7 e 7 , ...Xb.Y @.[.+.+.-.",
"c.-.z.c.b.v.F.$XH.H.JXOXo 0 b j z z z a z z z z j a e j 4 j j q 4 4 e 0 e e 7 e z z m z a a 4 j 8 e i h l 5 F {.b.b.k.Y ;.;.L | ",
",.:.,.c.b.c.S.+XC.$XFXCX+.o a j z z m x x m m z 7 z 4 0 4 0 q 0 q 4 2 0 2 4 7 4 a z z a a j j 0 8 2 3 i 4 , +.oXk.k.;.U -.:.` -.",
">.:.;.b.<.b.D.S.@X3X3XBX X, 1 M e e e e 7 7 z 7 t z z z e 0 0 e e 0 0 0 0 0 0 e 4 0 4 4 4 q 3 q 0 0 3 j : 8 D..XY ;.k.U U ' | +.",
";.k.k.b.k.C.C.S.F.@XG.H.BXc., 0 x v v z x v v v v z v c c c c c l l l j j j j j e j e j 0 0 0 j q 0 j 3 5 -.+XF.k.;.k.-.U U U ' ",
">.>.c.z.c.v.[.v.*X*X$X@XFXpX{ v z b b m b b c m b b b b b b b b l l l l l l m l c j l c l 0 l j l l l p  .3..Xb.,.;.>.-.' ' } +.",
"z e z 4 0 t t e ! F G J L { j $ - - - 3 - 3 - - 3 3 3 3 - - - - s - - ; - - - 3 * - - - - ; ; ; $ = - X q _ y y 7 2 2 4 4 5 3 j ",
"$ % % + + % . + . + % .   X $ % = & # = @ & = = @ # @ # # # # # O # & @ & # @ & & & & & O $ & & = = - $ # X   o @ + # # % + % u ",
"M d u u d s s s s g g g k h p k u s u u s u u d p u k u s s s s s s s h u h k p p h h h h h s s h s ; s f u f g s k k s k s d k "
};
