/* XPM */
static char *_616353499209[] = {
/* columns rows colors chars-per-pixel */
"64 64 255 2 ",
"   c #010101",
".  c #0B0202",
"X  c #020902",
"o  c #020309",
"O  c #0A0609",
"+  c #090B0A",
"@  c #130201",
"#  c #1C0402",
"$  c #130A04",
"%  c #1B0B05",
"&  c #180B0A",
"*  c #191109",
"=  c #040912",
"-  c #181415",
";  c #230B03",
":  c #270A08",
">  c #370803",
",  c #23130C",
"<  c #2B120C",
"1  c #2C1F0C",
"2  c #33120C",
"3  c #37180A",
"4  c #370E11",
"5  c #291712",
"6  c #381A14",
"7  c #392317",
"8  c #38220E",
"9  c #302B29",
"0  c #450703",
"q  c #4A1507",
"w  c #58190B",
"e  c #481814",
"r  c #551B18",
"t  c #4D0208",
"y  c #6B0C02",
"u  c #661A09",
"i  c #7A1609",
"p  c #681716",
"a  c #6F120D",
"s  c #55240B",
"d  c #472919",
"f  c #572818",
"g  c #55311D",
"h  c #5C341D",
"j  c #452D18",
"k  c #67240B",
"l  c #642719",
"z  c #722818",
"x  c #67351B",
"c  c #763619",
"v  c #77290D",
"b  c #701D28",
"n  c #452A23",
"m  c #4B3626",
"M  c #593824",
"N  c #50352F",
"B  c #653B24",
"V  c #6B3D24",
"C  c #653C28",
"Z  c #6C3E28",
"A  c #6B3221",
"S  c #763926",
"D  c #6C2C27",
"F  c #5B1E26",
"G  c #5D4333",
"H  c #57432B",
"J  c #6C422A",
"K  c #67422B",
"L  c #744223",
"P  c #73442B",
"I  c #7B4A2D",
"U  c #794526",
"Y  c #684936",
"T  c #774B34",
"R  c #795537",
"E  c #77461D",
"W  c #504543",
"Q  c #684D41",
"!  c #785547",
"~  c #73574C",
"^  c #7E6254",
"/  c #861A08",
"(  c #891815",
")  c #931C10",
"_  c #852A0C",
"`  c #98250C",
"'  c #9B330A",
"]  c #892A18",
"[  c #972A19",
"{  c #87361A",
"}  c #963619",
"|  c #A42B18",
" . c #A63719",
".. c #B53C18",
"X. c #A7290E",
"o. c #832826",
"O. c #9A2A23",
"+. c #883825",
"@. c #973925",
"#. c #953837",
"$. c #A82D28",
"%. c #A73825",
"&. c #B63B26",
"*. c #B63E34",
"=. c #954618",
"-. c #AA4618",
";. c #B9431B",
":. c #B7521B",
">. c #87472B",
",. c #9A4629",
"<. c #86512B",
"1. c #995128",
"2. c #874E34",
"3. c #984937",
"4. c #855234",
"5. c #8B5639",
"6. c #8E593A",
"7. c #885638",
"8. c #935C3C",
"9. c #9A5E3D",
"0. c #965635",
"q. c #AA442C",
"w. c #A94826",
"e. c #BC4C2A",
"r. c #B64729",
"t. c #A9562A",
"y. c #BC542C",
"u. c #B85729",
"i. c #A84734",
"p. c #BC4433",
"a. c #BC4C32",
"s. c #B54936",
"d. c #AB5639",
"f. c #BB5736",
"g. c #9C623F",
"h. c #96603D",
"j. c #BD682D",
"k. c #A4643E",
"l. c #BB673A",
"z. c #AF642B",
"x. c #C9601F",
"c. c #C44929",
"v. c #C3532C",
"b. c #C85A2A",
"n. c #C34C32",
"m. c #C64838",
"M. c #C35533",
"N. c #CB5333",
"B. c #CA5B35",
"V. c #CD5C3B",
"C. c #C65939",
"Z. c #D55939",
"A. c #D2512E",
"S. c #C8622A",
"D. c #D6682C",
"F. c #C7673A",
"G. c #D2643C",
"H. c #DA633B",
"J. c #D56B3B",
"K. c #D76B35",
"L. c #D9753B",
"P. c #CE7631",
"I. c #E7793B",
"U. c #E87334",
"Y. c #E9512A",
"T. c #875845",
"R. c #94584C",
"E. c #A35A43",
"W. c #B85643",
"Q. c #8C6246",
"!. c #946444",
"~. c #9C6342",
"^. c #93684B",
"/. c #896557",
"(. c #956A54",
"). c #9A7256",
"_. c #A36642",
"`. c #A56A45",
"'. c #AC6B44",
"]. c #A96948",
"[. c #B36C43",
"{. c #B76B4A",
"}. c #B8754A",
"|. c #A66C53",
" X c #A77655",
".X c #B87956",
"XX c #B96D56",
"oX c #A37A65",
"OX c #AF7662",
"+X c #C65D43",
"@X c #CA5743",
"#X c #D45845",
"$X c #CE534D",
"%X c #C86548",
"&X c #D76846",
"*X c #C6764B",
"=X c #D97647",
"-X c #C66856",
";X c #D86952",
":X c #C57A52",
">X c #D87854",
",X c #E46847",
"<X c #E27545",
"1X c #E27B44",
"2X c #E3744B",
"3X c #E57C4B",
"4X c #E97849",
"5X c #E46B52",
"6X c #E57B54",
"7X c #EC7B54",
"8X c #E87658",
"9X c #F57957",
"0X c #F5764F",
"qX c #F67A65",
"wX c #C76E66",
"eX c #DF803C",
"rX c #E68838",
"tX c #EA983D",
"yX c #F19339",
"uX c #F3833D",
"iX c #EDA63E",
"pX c #BA805A",
"aX c #B88666",
"sX c #C98459",
"dX c #DA8659",
"fX c #D3834A",
"gX c #E98949",
"hX c #F78948",
"jX c #EB9745",
"kX c #F79848",
"lX c #EA8857",
"zX c #F5885A",
"xX c #F99556",
"cX c #EF9654",
"vX c #EBA445",
"bX c #F3A647",
"nX c #F6B54C",
"mX c #FCA959",
"MX c #F9B559",
"NX c #C98C66",
"BX c #D98D68",
"VX c #D99267",
"CX c #D09276",
"ZX c #E68966",
"AX c #F78866",
"SX c #E79867",
"DX c #FB9668",
"FX c #ED8D72",
"GX c #D2A07F",
"HX c #F6AB72",
"JX c #FFB58D",
"KX c #EFAE8D",
"LX c #FFBAA1",
"PX c #E49781",
"IX c #FFC3A1",
/* pixels */
"            .                                                                                                     . o           ",
"      X                                                                                                           o             ",
".                                                                                                                       X     X ",
"-     X                                                                                                         o             - ",
"9                                                                                                                   .       . 9 ",
"9 . .                                                                                                               X     . * N ",
"N $           X                                                                                                           . + W ",
"W O   .                                                                                                                   . * W ",
"N $ o o       o                                                                                                 o       . o % Q ",
"H $   X   .   o                                                                                                 o       o o * Q ",
"G - o o   .   o                                                                                                 o       . o , Q ",
"Q *           o                                                                                                 o       o o , ~ ",
"~ , o     .   o                                                                                                 o       o   , ^ ",
"! 5           o                                                                                                     .     o , ^ ",
"! 5   o       o                                                                                                       X X X 5 /.",
"! <           o                                                                                                 o       o o 5 ^ ",
"^.6   o X       .       X       o O           X     X O O O   . X . O O   . O o X       o   o o       .       X       . o   6 /.",
"(.7 o o o                               X   .   X O & & # ; 8 3 6 7 3 6 6 , # $ . $ O .     o X o       .         .   o o o 7 ).",
"(.j   o o                 o   o   o   o o . @ ; 4 e e s f c I h x 2.S A f s M s e 7 5 , @ .     X X o     X X     .     o + n aX",
"^.m   X       X         X o o   X X     # 6 F l z 3.>.u _ {.t.u >.,.c { +.+.5.U S S l f g d 3 %               .         o X 7 ).",
"Q.m   o               o o O     o   $ d 7. X[.t.=.t.u.' y.C.} [ +Xq.[ d.W.i.,.+.+.[ { ,.0.0.<.c < .     X o   .       . o . d ).",
"Q.M .           . . . o o       @ d !.NXSXSXfXP.L.L.1XJ.&Xy.} @X;X%X%X+X+Xq.} i.n.f.r.t.w.t.l.*X2.3 @ X   o . .         X . j OX",
"Q.H . o               o   . : e 1.E.f.t.-.u.u.u.-.F.lX3X&X6XZX=XF.>XlXr.' r.y.&X=X>X&Xu.-.e.&X2X-XS > .       .         + $ M aX",
"^.K . .     . X     o o   ; l 5. .v.n.[ / [ W.*XC.r.r.f.` ' lXlX=.j.mX=XS.=Xu.-.d.%X%Xl.f.M.V.V.8XE.S n * o o   X       o * M aX",
"7.G X   X . . o         0 R.%Xw.u.@.@.@.q.C.D.I.0XC.v 0 w ( qXl.; r wX2XD.gXlXP.H.u.S.L.4X,Xb.b.%X;X*Xd.x % . = O .     X $ h sX",
"].T.*         . o   $ 2 r 3.@XM.%Xq.[ ] [ f.6XK.#Xs.+.0 > [ m.t $ @ w C.D.2X=XDXDXDXlXP.D.4XlX6XZX>X=XF.1.f :   o   X o o   8  X",
"wX|.7 . o     o   # e F z i.;X,X;Xs.%.%.O.] } ` ( ( o.S w p.p.@     3 >X.. .w.;.<XlXgXK.D.A.H.AXlX3XrXgXrXl.E 3       o = o 6 ).",
"dX.Xm o X o     ; n #.i.,.f.6X6X7X;Xs.i.q.] / [ o.p b R.0.,X-X  . = n LX#Xy ] | ;.gXxXxXD.;.A.8X5X<XgXmXmXcXfXt.j %   o = o 6 (.",
"sX XK   X X . % r o.s.@XM.C.>X&XDXzXu.' w.q.@.s.i.b t > +.JXPXo O o * FXqXy w O...J.gXxXhXU.Z.&X8XH.D.rXtXjXmXSX].k #   o o 7 /.",
"P.sX(.%   O 6 Z ,.s.n.M.r.-.F.%XJ.L.gXP.F.F.%.O.] a 0 > q.JXOXo O o . 3.m.] p c n.H.=XI.0X9X9XAXZX&Xb.U.jXmXmXbXcXt.s @   O d T.",
"sXdXNXd @ 4 D s.n.H.B.e...e.>X:X-.-.L.lXS. .q.p.$.a w M @.&.0   O o @ |.+X( p k | C.7XK.c.A.H.7XHXSXlXmXMXMXnXiXkXI.t.s ; < C 6.",
"dXdXBXl 4 F #.&.c.K.=XJ.M.V.&Xf.y.u.eXcXj. .p.*.O.W.S m k ) > o     O KXKX$.o.+.&. .e.c.;.....b.zXHXHXHXMXbXnXnXyXtX3XE.F M Q. X",
".X:X>Xd.3.>.%.A.D.I.uXxXhXS.:.S.P.K.3X3XZ.e.$.$.$.3.l w p #.0 o @ o   KXJXq.i @.p.%.) %.p.%.r.a.=XcXmXMXnXnXbXnXxXS.=.9.>.+.:X}.",
"[.*XFXVX|.XX8X8XkXkXkXbXjXtXgXxXxX1XJ.b.y.n.&.$.( p 0 e b O.0 o . =   GXSX .O.%. .p.n.@X;X5X8X6X4XlXjXtXbXbXrXP.4X*X>.l S E.VXsX",
"sXdXDXVXu l d.;XhXkXiXiXbXbXyXuX3X<X<XS.Z.5X@X%.s.o.w w p $X#.o   o   KX>X) ( [ ..&.p.5XDXzX<XD.J.gXjXjXjXkXrXS.f.E.d @ > (.VXdX",
"pXsXsXNXs > w +.x.I.yXbXiXrXD.S.v.b.J.y.v.&Xp.` ( y S A t $XBX  . o $ IX6X[ i i &.` ` N.7X2Xb.D.=XI.U.U.uXhX=Xe.p q .   @ T.XX%X",
" X`.`.pXm $ % 6 { ;XzXhXuXI.L.L.&XB.G.B.e.e.r.&.[ $.;XE.u C.FX    o m LX*X3.R.[ | [ | $.n.&X4XL.zXI.U.I.I.K.{ y e < + + O /.XX*X",
" X|.}.aXH   O & 0 S i.r.H.zXzXfXF.e.B.J.v. . .M.s.| p.-X3.[ ,..   o /.KX} u S ,.m.m.*.| X.n.8X9XlXI.I.hXgXq.w 4 : - = o $ /.R.E.",
" X'.[.sX^.X + o @ 2 w ] C.DXDXgXN.e.v.2X2XG.V.#X&.m.m.] ] r.-Xe o   ).>X/ t p } ,X9XAX8XV.N.4XzXgX=XU.4X=XS : O . + X   % ! P 7.",
"_.*XdXSXGX$   = o   ; s =.J.1XD.;X&XM.c.y.M.a.` Z.#XZ.*.} ` AXCXO @ |.e./ #.#.| ;.H.5X9X2XB.D.A.&X3XJ.u._ >   =   o   . ; ! K R ",
"{.NXsXdXHX; . .     O @ 4 D { @.2X,XM.s.[ O.O.O.e.` ..5X5XX.#X8Xq z -X( [ 5X2XD.m.&.c.Z.Z.H.K.D.Y.Z.s.D < .       X =   < ).0.<.",
"[.sXsXfXVXj   o X   X o $ 2 q k _ } -.%Xs. .w.;XF.&X8XZ. .` #XAXBX+X#X$XN.Z.lXzX#XA.A.,X,X,X0X4XN.w.z 3 @       X o o   d OX.Xk.",
"*X[.}.*XVX/.. o     X o   . # < c c c d.l.F.u.F.u.u.&Xr.| #X5Xp.qX5Xm.Z.n./ X.H.Z.&X,XZ.c.H.#Xc.{ f > .         .   O @ g |.}.[.",
":X'.[.>XSXNX% o     o X o   X * : D P 2.1.1.1.i.=.} r.B.Z.A.X.) qX0XX.,X8X%.' N.c.N.A.c.p.@XW.] 6 ;     X o         O @ ! ~.0.<.",
"[.[.}.VXVXNX8   .   .   o o X   O % < d x A k l c { w.%XM.....Z.9XZ.&.0X9XV.c.H.&X&. .i.3.+.l q * $   o   o   . X     $ T.<.c T ",
"`._.'.dXsXsXT X .         o X   O   . @ , < : 4 q w z 3.i.f.*Xf.]  ...N.v.b.r.N.E.] p l f 6 ; @ .         . . .   X   1 R I J T ",
"^.9.`.}.l.l..X* o               o o o     . . O # < : e g x A S l S ] [ d.{.+.v r e 2 % . . o o                 X o $ Y T.8.4.T ",
"^.8.`.k.z.j.GXH X     X         o   o X X     X o = O @ # : : 2 6 4 e r D d n 4 : . X X X o O o X       X       .   , ! L 1.(.T.",
"8.4.g.~.k.sXpXk.X + o =   . X                         o     o X O O $ O O O O O                                 o . g U U J R 7.",
"!.7.~.`.k.pXsXl.8 X   o       .                                   o       X                                     X % J I U S P P ",
"!.6.g.`.}. X}.}.! . . o       o                                                                                   7 R <.U P B Z ",
"h.6.h.`.[.k.}.sXaX8     X                                                                                     X . N Q.U S Z B P ",
"7.8.g.g.`.'.'..XGXR @                                                                                           , Y 7.L V Z B J ",
"6.h.`.g.k.'.l.*XdXaX3 .                                                                                       o 8 R I L Z C J V ",
"h.h.~.g.'.'.[.}.J.NXQ & .     X                                                                 o             + H R E L J C B x ",
"h.8.g._.k.'.k.}.S.NXoX5 .                                                                                   + - R I c c B M B x ",
"8.~.~.~._._.'.`.'..XNX7.; X o                                                                   .     o o   , G I R J x J B f h ",
"0.9.g.9.9.9.k.9.'.'.}.!.j $   X                                                                       o   % d Y V L L x I J K L ",
"8.8.9.9.9.g.~.k.`._.'.|.R 1 .                                                                           . 7 K Y L J B J J K x B ",
"8.8.!.9.9.g.9.~.~.`.'.}.!.g %                                                                     o   . , m T L B x B J B K B B ",
"7.5.8.8.8.9.9.9.~._._.}.~.Z 7 $                                                                 o o   % 7 C P L C x C Z B Z K B ",
"4.7.5.6.5.5.8.!.~.8.g.]._.<.M 7 +           o                                                       . , d C P L J B B B M h M g ",
"R 4.7.7.4.4.5.9.0.0.~._._.h.R K - O   o                                                         X $ , 8 M Z V V B M g h M g g g ",
"I I 2.2.<.I 4.6.0.0.!.~.`.`.7.T 9 +                                                               $ 5 d B Z C x B M g g g g g d "
};
